<?xml version="1.0" standalone="no"?>
<!DOCTYPE svg PUBLIC "-//W3C//DTD SVG 1.1//EN" "http://www.w3.org/Graphics/SVG/1.1/DTD/svg11.dtd" >
<svg xmlns="http://www.w3.org/2000/svg" xmlns:xlink="http://www.w3.org/1999/xlink" version="1.1">
<metadata>
Created by FontForge 20170731 at Thu Apr 23 06:18:41 2015
 By Aleksey,,,
Free for personal use.
</metadata>
<defs>
<font id="Ailerons" horiz-adv-x="445" >
  <font-face 
    font-family="Ailerons"
    font-weight="400"
    font-stretch="normal"
    units-per-em="1000"
    panose-1="0 0 0 0 0 0 0 0 0 0"
    ascent="993"
    descent="-7"
    x-height="683"
    cap-height="684"
    bbox="-38 -118.818 438 993"
    underline-thickness="50"
    underline-position="-150"
    unicode-range="U+000D-FB02"
  />
<missing-glyph horiz-adv-x="500" 
d="M63 0v993h375v-993h-375v0zM125 63h250v868h-250v-868v0z" />
    <glyph glyph-name=".notdef" horiz-adv-x="500" 
d="M63 0v993h375v-993h-375v0zM125 63h250v868h-250v-868v0z" />
    <glyph glyph-name=".null" horiz-adv-x="0" 
 />
    <glyph glyph-name="nonmarkingreturn" unicode="&#xd;" horiz-adv-x="0" 
 />
    <glyph glyph-name="NULL" horiz-adv-x="0" 
 />
    <glyph glyph-name="NULL" horiz-adv-x="0" 
 />
    <glyph glyph-name="space" unicode=" " horiz-adv-x="246" 
 />
    <glyph glyph-name="exclam" unicode="!" horiz-adv-x="384" 
d="M257 663v-517h-58q-3 0 -6 1q-6 2 -6 9v532h49q9 0 15 -6t6 -15v-4zM245 86q3 0 6 -1q6 -2 6 -10v-75h-49q-8 0 -14.5 6t-6.5 14v66h58v0z" />
    <glyph glyph-name="numbersign" unicode="#" 
d="M222 269q-7 0 -9 1l-4 2l-50 21q-5 2 -6.5 4.5t-3.5 4.5q-2 3 -6 13t-7 17h25v2q0 3 -1 4q-2 2 -8 2h-26q-13 0 -19 4.5t-8 9.5q-2 3 -7.5 16t-9.5 21h103q5 0 8.5 1t5.5 1l12 6q1 0 3 1q4 2 8 2q5 0 9 -2q2 -1 3 -1l12 -5q2 -1 5.5 -2t8.5 -1h102q-3 -8 -8.5 -21
t-7.5 -16q-2 -5 -8.5 -9.5t-19.5 -4.5h-25q-7 0 -8 -2q-1 -1 -1 -4v-1l1 -1h24q-5 -10 -8.5 -19t-5.5 -11q-2 -6 -9 -9l-51 -21l-4 -2q-2 -1 -9 -1z" />
    <glyph glyph-name="dollar" unicode="$" 
d="M222 269q-7 0 -9 1l-4 2l-50 21q-5 2 -6.5 4.5t-3.5 4.5q-2 3 -6 13t-7 17h25v2q0 3 -1 4q-2 2 -8 2h-26q-13 0 -19 4.5t-8 9.5q-2 3 -7.5 16t-9.5 21h103q5 0 8.5 1t5.5 1l12 6q1 0 3 1q4 2 8 2q5 0 9 -2q2 -1 3 -1l12 -5q2 -1 5.5 -2t8.5 -1h102q-3 -8 -8.5 -21
t-7.5 -16q-2 -5 -8.5 -9.5t-19.5 -4.5h-25q-7 0 -8 -2q-1 -1 -1 -4v-1l1 -1h24q-5 -10 -8.5 -19t-5.5 -11q-2 -6 -9 -9l-51 -21l-4 -2q-2 -1 -9 -1z" />
    <glyph glyph-name="percent" unicode="%" 
d="M222 269q-7 0 -9 1l-4 2l-50 21q-5 2 -6.5 4.5t-3.5 4.5q-2 3 -6 13t-7 17h25v2q0 3 -1 4q-2 2 -8 2h-26q-13 0 -19 4.5t-8 9.5q-2 3 -7.5 16t-9.5 21h103q5 0 8.5 1t5.5 1l12 6q1 0 3 1q4 2 8 2q5 0 9 -2q2 -1 3 -1l12 -5q2 -1 5.5 -2t8.5 -1h102q-3 -8 -8.5 -21
t-7.5 -16q-2 -5 -8.5 -9.5t-19.5 -4.5h-25q-7 0 -8 -2q-1 -1 -1 -4v-1l1 -1h24q-5 -10 -8.5 -19t-5.5 -11q-2 -6 -9 -9l-51 -21l-4 -2q-2 -1 -9 -1z" />
    <glyph glyph-name="ampersand" unicode="&#x26;" 
d="M222 269q-7 0 -9 1l-4 2l-50 21q-5 2 -6.5 4.5t-3.5 4.5q-2 3 -6 13t-7 17h25v2q0 3 -1 4q-2 2 -8 2h-26q-13 0 -19 4.5t-8 9.5q-2 3 -7.5 16t-9.5 21h103q5 0 8.5 1t5.5 1l12 6q1 0 3 1q4 2 8 2q5 0 9 -2q2 -1 3 -1l12 -5q2 -1 5.5 -2t8.5 -1h102q-3 -8 -8.5 -21
t-7.5 -16q-2 -5 -8.5 -9.5t-19.5 -4.5h-25q-7 0 -8 -2q-1 -1 -1 -4v-1l1 -1h24q-5 -10 -8.5 -19t-5.5 -11q-2 -6 -9 -9l-51 -21l-4 -2q-2 -1 -9 -1z" />
    <glyph glyph-name="parenleft" unicode="(" horiz-adv-x="410" 
d="M260 26q17 0 25.5 -6t12.5 -13q2 -5 9.5 -21t13.5 -30h-115q-14 0 -21 7t-11 16q-4 11 -5 24v678q1 12 5 23q4 9 11 16.5t21 7.5h115q-6 -14 -13.5 -30.5t-9.5 -20.5q-4 -7 -12.5 -13t-25.5 -6h-10q-5 0 -8 -3.5t-3 -8.5v-608q0 -5 3 -8.5t8 -3.5h10v0z" />
    <glyph glyph-name="parenright" unicode=")" horiz-adv-x="410" 
d="M229 26h10q5 0 8 3.5t3 8.5v608q0 5 -3 8.5t-8 3.5h-10q-17 0 -25.5 6t-11.5 13q-2 4 -9.5 20.5t-13.5 30.5h115q14 0 21 -7.5t11 -16.5q4 -11 5 -23v-678q-1 -13 -5 -24q-4 -9 -11 -16t-21 -7h-115q6 14 13.5 30t9.5 21q3 7 11.5 13t25.5 6z" />
    <glyph glyph-name="asterisk" unicode="*" 
d="M222 269q-7 0 -9 1l-4 2l-50 21q-5 2 -6.5 4.5t-3.5 4.5q-2 3 -6 13t-7 17h25v2q0 3 -1 4q-2 2 -8 2h-26q-13 0 -19 4.5t-8 9.5q-2 3 -7.5 16t-9.5 21h103q5 0 8.5 1t5.5 1l12 6q1 0 3 1q4 2 8 2q5 0 9 -2q2 -1 3 -1l12 -5q2 -1 5.5 -2t8.5 -1h102q-3 -8 -8.5 -21
t-7.5 -16q-2 -5 -8.5 -9.5t-19.5 -4.5h-25q-7 0 -8 -2q-1 -1 -1 -4v-1l1 -1h24q-5 -10 -8.5 -19t-5.5 -11q-2 -6 -9 -9l-51 -21l-4 -2q-2 -1 -9 -1z" />
    <glyph glyph-name="plus" unicode="+" horiz-adv-x="16" 
 />
    <glyph glyph-name="comma" unicode="," horiz-adv-x="293" 
d="M164 86v-83q-1 -17 -7 -30q-5 -11 -16.5 -20t-32.5 -9v21q6 0 10 3q4 2 7 7.5t2 15.5v9h-12q-8 0 -14.5 6t-6.5 14v55q0 8 6 10q3 1 6 1h58z" />
    <glyph glyph-name="hyphen" unicode="-" horiz-adv-x="417" 
d="M289 374v-49q0 -9 -6 -15t-15 -6h-113v48q0 9 6.5 15.5t14.5 6.5h113z" />
    <glyph glyph-name="period" unicode="." horiz-adv-x="247" 
d="M69 0q-8 0 -14.5 6t-6.5 14v66h58q3 0 6 -1q6 -2 6 -10v-75h-49v0z" />
    <glyph glyph-name="slash" unicode="/" horiz-adv-x="463" 
d="M180 -3q-5 -17 -13.5 -20t-10.5 -3h-52l176 705q4 17 12.5 20t10.5 3h53z" />
    <glyph glyph-name="zero" unicode="0" horiz-adv-x="467" 
d="M233 56q16 0 27 11t11 27v495q0 16 -11 27t-27 11q-15 0 -26 -11t-11 -27v-495q0 -16 11 -27t26 -11zM257 688q34 -2 59 -27t25 -60v-520q0 -18 -6.5 -33t-18 -26.5t-27 -18.5t-32.5 -8h-44q-36 0 -61.5 25t-25.5 61v520q0 36 25.5 61.5t61.5 25.5h44v0z" />
    <glyph glyph-name="one" unicode="1" horiz-adv-x="467" 
d="M258 685q14 1 21 -6t11 -16q4 -11 5 -25v-638h-49q-9 0 -15 6t-6 15v578q0 6 -2.5 10.5t-10.5 6.5q-11 2 -16.5 7t-8.5 10q-2 5 -6.5 21t-8.5 31h86v0z" />
    <glyph glyph-name="two" unicode="2" horiz-adv-x="467" 
d="M353 69q-6 -14 -13 -29.5t-9 -20.5q-4 -7 -13 -13t-26 -6h-179v59q0 20 4.5 40.5t10.5 38.5q6 20 15 41l84 197q11 25 17 43.5t9 31.5q4 15 5 25v114q0 16 -11 26.5t-26 10.5q-16 0 -27 -10.5t-11 -26.5l1 -77q-14 6 -30.5 13.5t-20.5 9.5q-8 4 -14 12.5t-6 25.5v27
q0 18 6.5 33.5t18 27t27 18.5t32.5 8h44q36 0 61.5 -25.5t25.5 -61.5v-117q0 -18 -2.5 -33.5t-5.5 -26.5q-4 -13 -8 -23l-98 -224q-11 -25 -17 -43t-9 -30q-4 -14 -4 -24v-11h169z" />
    <glyph glyph-name="three" unicode="3" horiz-adv-x="467" 
d="M341 401q-2 -35 -24 -59q11 -12 17 -27t7 -32v-201q0 -18 -6.5 -33.5t-18 -27t-27 -18.5t-32.5 -8h-44q-36 0 -61.5 25.5t-25.5 61.5v29q0 17 6 25.5t13 12.5q5 2 21.5 9.5t29.5 13.5v-79q0 -15 11 -26t26 -11t25 10t12 24v183q-2 13 -10 22t-21 11v1q-9 0 -15 6t-6 14
v49h15q15 0 25 10t12 24v183q-2 14 -12 24t-25 10t-26 -11t-11 -26v-79q-13 6 -29.5 13.5t-21.5 9.5q-7 3 -13 12t-6 26v29q0 36 25.5 61.5t61.5 25.5h44q34 -2 59 -27t25 -60v-200v0z" />
    <glyph glyph-name="four" unicode="4" horiz-adv-x="467" 
d="M232 430l-67 -231h67v231zM374 199q-6 -14 -14 -31.5t-10 -22.5q-4 -7 -13 -13t-26 -7h-9v-125h-49q-9 0 -15 6t-6 15v104h-76q-18 0 -25.5 6.5t-11.5 13.5q-1 3 -5 9q-3 5 -8 15t-14 27l134 467q5 16 13 18.5t11 2.5h52v-485h72z" />
    <glyph glyph-name="five" unicode="5" horiz-adv-x="467" 
d="M251 438q36 0 61 -25.5t26 -60.5v-271q0 -35 -24.5 -59.5t-59.5 -25.5v-1h-44q-36 0 -61 25.5t-26 60.5v92q0 17 6 25.5t13 11.5q5 2 21.5 10t29.5 13l1 -50h-1v-89q0 -15 11 -26t27 -11q15 0 26 11t11 26v236q0 16 -11 27t-26 11h-72q-15 0 -25.5 10.5t-10.5 25.5v152
v82q1 12 5 23q4 8 11 15.5t21 7.5h183q-5 -13 -13 -29.5t-10 -21.5q-3 -7 -11.5 -13t-25.5 -6h-10.5h-24h-26h-17.5q-12 0 -12 -11v-70v-95h58v0z" />
    <glyph glyph-name="six" unicode="6" horiz-adv-x="467" 
d="M270 336q-2 14 -12 23.5t-25 9.5h-37v-275q0 -16 11 -27t26 -11t25 10t12 24v246zM243 437q25 0 43 -8.5t29.5 -22t17 -30.5t5.5 -35v-259q0 -18 -6.5 -33.5t-18 -27.5t-27 -19t-32.5 -7h-41q-36 0 -61.5 25.5t-25.5 61.5v519q0 36 25.5 61.5t61.5 25.5h44q34 -2 59 -27
t25 -60v-25q0 -17 -6 -27.5t-14 -14.5q-4 -2 -20.5 -9.5t-29.5 -13.5v1v77q0 16 -11 27t-27 11q-15 0 -26 -11t-11 -27v-152h47v0z" />
    <glyph glyph-name="seven" unicode="7" horiz-adv-x="467" 
d="M361 684q-24 -45 -41.5 -98.5t-30.5 -110t-22 -113.5t-15 -110q-14 -124 -16 -252h-49q-8 0 -14.5 6.5t-6.5 14.5q1 110 11 203t24.5 167t30.5 130t30 93h-96q-17 0 -25.5 6t-11.5 13q-2 5 -10 21.5t-13 29.5h255z" />
    <glyph glyph-name="eight" unicode="8" horiz-adv-x="467" 
d="M270 593q-2 14 -12 24t-25 10q-14 0 -24.5 -10t-12.5 -24v-191q2 -14 12.5 -23.5t24.5 -9.5q15 0 25 9.5t12 23.5v191zM270 281q-2 14 -12 24t-25 10q-14 0 -24.5 -10t-12.5 -24v-191q2 -14 12.5 -23.5t24.5 -9.5q15 0 25 9.5t12 23.5v191zM341 409q0 -9 -0.5 -19
t-3 -19.5t-8.5 -17.5t-18 -11q12 -3 18.5 -11t9 -17.5t2.5 -20v-18.5v-193q0 -18 -6.5 -33.5t-18 -27t-27 -18.5t-32.5 -8h-47q-35 2 -59.5 27t-24.5 60v193v18.5t3 20t9.5 17.5t18.5 11q-12 3 -18.5 11t-9 17.5t-3 19.5t-0.5 19v192q0 35 24.5 60t59.5 27h47q34 -2 59 -27
t25 -60v-192v0z" />
    <glyph glyph-name="nine" unicode="9" horiz-adv-x="467" 
d="M269 589q0 16 -10.5 27t-26.5 11q-14 0 -24.5 -10t-12.5 -24v-220q0 -19 8 -28t29 -9h37v253zM253 688q36 0 61 -25.5t25 -61.5v-519q0 -36 -25 -61.5t-61 -25.5h-42q-35 1 -59.5 26.5t-24.5 60.5v1v29q0 17 6 25.5t13 11.5q5 2 20 10.5t29 14.5v-80q0 -16 10.5 -26.5
t26.5 -10.5t26.5 10.5t10.5 26.5v181h-44q-31 0 -50.5 9t-30 23t-14 31.5t-3.5 34.5v228q0 18 6.5 33.5t18 27t27 18.5t32.5 8h42v0z" />
    <glyph glyph-name="colon" unicode=":" horiz-adv-x="307" 
d="M181 321v-65h-58q-3 0 -6 1q-6 2 -6 10v75h50q8 0 14 -6t6 -15zM169 86h-58v-66q0 -8 6.5 -14t14.5 -6h49v75q0 8 -6 10q-3 1 -6 1z" />
    <glyph glyph-name="semicolon" unicode=";" horiz-adv-x="294" 
d="M148 342q8 0 14.5 -6t6.5 -14v-66h-58q-3 0 -6 1q-6 2 -6 10v75h49v0zM110 86q-3 0 -6 -1q-6 -2 -6 -10v-54q0 -9 6 -15t14 -6h12v-9q1 -17 -8 -23q-4 -3 -10 -3v-21q21 0 32.5 9t16.5 20q6 13 7 30v83h-58v0z" />
    <glyph glyph-name="less" unicode="&#x3c;" 
d="M222 269q-7 0 -9 1l-4 2l-50 21q-5 2 -6.5 4.5t-3.5 4.5q-2 3 -6 13t-7 17h25v2q0 3 -1 4q-2 2 -8 2h-26q-13 0 -19 4.5t-8 9.5q-2 3 -7.5 16t-9.5 21h103q5 0 8.5 1t5.5 1l12 6q1 0 3 1q4 2 8 2q5 0 9 -2q2 -1 3 -1l12 -5q2 -1 5.5 -2t8.5 -1h102q-3 -8 -8.5 -21
t-7.5 -16q-2 -5 -8.5 -9.5t-19.5 -4.5h-25q-7 0 -8 -2q-1 -1 -1 -4v-1l1 -1h24q-5 -10 -8.5 -19t-5.5 -11q-2 -6 -9 -9l-51 -21l-4 -2q-2 -1 -9 -1z" />
    <glyph glyph-name="equal" unicode="=" 
d="M222 269q-7 0 -9 1l-4 2l-50 21q-5 2 -6.5 4.5t-3.5 4.5q-2 3 -6 13t-7 17h25v2q0 3 -1 4q-2 2 -8 2h-26q-13 0 -19 4.5t-8 9.5q-2 3 -7.5 16t-9.5 21h103q5 0 8.5 1t5.5 1l12 6q1 0 3 1q4 2 8 2q5 0 9 -2q2 -1 3 -1l12 -5q2 -1 5.5 -2t8.5 -1h102q-3 -8 -8.5 -21
t-7.5 -16q-2 -5 -8.5 -9.5t-19.5 -4.5h-25q-7 0 -8 -2q-1 -1 -1 -4v-1l1 -1h24q-5 -10 -8.5 -19t-5.5 -11q-2 -6 -9 -9l-51 -21l-4 -2q-2 -1 -9 -1z" />
    <glyph glyph-name="greater" unicode="&#x3e;" 
d="M222 269q-7 0 -9 1l-4 2l-50 21q-5 2 -6.5 4.5t-3.5 4.5q-2 3 -6 13t-7 17h25v2q0 3 -1 4q-2 2 -8 2h-26q-13 0 -19 4.5t-8 9.5q-2 3 -7.5 16t-9.5 21h103q5 0 8.5 1t5.5 1l12 6q1 0 3 1q4 2 8 2q5 0 9 -2q2 -1 3 -1l12 -5q2 -1 5.5 -2t8.5 -1h102q-3 -8 -8.5 -21
t-7.5 -16q-2 -5 -8.5 -9.5t-19.5 -4.5h-25q-7 0 -8 -2q-1 -1 -1 -4v-1l1 -1h24q-5 -10 -8.5 -19t-5.5 -11q-2 -6 -9 -9l-51 -21l-4 -2q-2 -1 -9 -1z" />
    <glyph glyph-name="question" unicode="?" horiz-adv-x="436" 
d="M330 601v-113q0 -15 -1.5 -26.5t-3.5 -19.5q-3 -10 -5 -17q-19 -54 -31 -89t-20 -56q-9 -25 -15 -37q-2 -4 -3 -9t-1.5 -10.5t-0.5 -10.5v-67h-58q-3 0 -6 1q-6 2 -6 10v61q0 11 7 30q28 72 43 116t22 69q8 29 8 43v115q0 15 -10.5 25.5t-26.5 10.5q-15 0 -26 -10.5
t-11 -25.5v-78q-13 6 -29.5 14t-21.5 10q-7 3 -13 11.5t-6 25.5v27q0 18 6.5 33.5t18 27.5t26.5 19t33 7h44q36 0 61.5 -25.5t25.5 -61.5zM179 75v-75h49q8 0 14.5 6t6.5 15v65h-58q-3 0 -6 -1q-6 -2 -6 -10z" />
    <glyph glyph-name="at" unicode="@" 
d="M222 269q-7 0 -9 1l-4 2l-50 21q-5 2 -6.5 4.5t-3.5 4.5q-2 3 -6 13t-7 17h25v2q0 3 -1 4q-2 2 -8 2h-26q-13 0 -19 4.5t-8 9.5q-2 3 -7.5 16t-9.5 21h103q5 0 8.5 1t5.5 1l12 6q1 0 3 1q4 2 8 2q5 0 9 -2q2 -1 3 -1l12 -5q2 -1 5.5 -2t8.5 -1h102q-3 -8 -8.5 -21
t-7.5 -16q-2 -5 -8.5 -9.5t-19.5 -4.5h-25q-7 0 -8 -2q-1 -1 -1 -4v-1l1 -1h24q-5 -10 -8.5 -19t-5.5 -11q-2 -6 -9 -9l-51 -21l-4 -2q-2 -1 -9 -1z" />
    <glyph glyph-name="A" unicode="A" horiz-adv-x="465" 
d="M345 0h-77l-61 472l-62 -472h-77l104 684h37q23 0 29.5 -11.5t8.5 -25.5z" />
    <glyph glyph-name="B" unicode="B" horiz-adv-x="465" 
d="M259 579q0 20 -11 27.5t-26 7.5h-37v-240h37q15 0 26 8.5t11 31.5v165zM259 270q0 23 -11 31.5t-26 8.5h-37v-240h37q15 0 26 7.5t11 27.5v165zM290 342q11 -4 20 -12q8 -7 14 -17.5t6 -26.5v-200q0 -36 -25.5 -61t-61.5 -25h-128v340v2v1v1v340h128q18 0 34 -6.5
t27.5 -18t18.5 -27t7 -33.5v-201q0 -17 -6 -27t-14 -17q-9 -8 -20 -12z" />
    <glyph glyph-name="C" unicode="C" horiz-adv-x="456" 
d="M326 82q0 -35 -24.5 -60t-59.5 -27h-44q-36 0 -61 25.5t-25 61.5v259v1v259q0 36 25 61.5t61 25.5h44q35 -2 59.5 -27t24.5 -60v-103q0 -17 -6 -25.5t-13 -12.5q-5 -2 -21 -9.5t-30 -13.5v153q0 15 -11 24.5t-26 9.5q-16 0 -26.5 -9.5t-10.5 -24.5v-248v-1v-248
q0 -15 10.5 -26t26.5 -11q15 0 26 11t11 26v92q0 17 6 25.5t13 12.5q5 2 21.5 9.5t29.5 13.5v-164z" />
    <glyph glyph-name="D" unicode="D" horiz-adv-x="472" 
d="M266 574q0 24 -10 34.5t-27 10.5h-47v-554h47q17 0 27 10.5t10 34.5v464zM239 684q97 0 97 -98v-487q0 -99 -97 -99h-126v684h126v0z" />
    <glyph glyph-name="E" unicode="E" horiz-adv-x="351" 
d="M95 70h147q7 0 5 -7.5t-7.5 -17t-12 -17.5t-8.5 -9q-3 -7 -11.5 -13t-25.5 -6h-157v664q0 9 6.5 14.5t14.5 5.5h183q7 0 5 -7.5t-7.5 -16.5t-12 -17t-8.5 -9q-3 -7 -11.5 -13.5t-25.5 -6.5h-57q-7 0 -12 -4.5t-5 -11.5v-204h106q7 0 5.5 -7.5t-7 -17t-12.5 -17.5t-9 -9
q-3 -8 -11.5 -14t-25.5 -6l-29 1q-7 0 -12 -5t-5 -12v-237z" />
    <glyph glyph-name="F" unicode="F" horiz-adv-x="385" 
d="M282 684q-6 -13 -13.5 -29.5t-9.5 -20.5q-4 -7 -12 -13.5t-25 -6.5h-78q-7 0 -12 -4.5t-5 -11.5v-214l125 1q-6 -14 -13.5 -30.5t-9.5 -21.5q-4 -7 -12.5 -13t-25.5 -6h-47q-7 0 -12 -4.5t-5 -11.5v-277q0 -9 -6 -15t-15 -6h-49v664q0 8 6.5 14t14.5 6h204z" />
    <glyph glyph-name="G" unicode="G" horiz-adv-x="459" 
d="M327 82q0 -35 -24.5 -60t-59.5 -27h-44q-36 0 -61 25.5t-25 61.5v519q0 36 25 61.5t61 25.5h44q35 -2 59.5 -27t24.5 -60v-44q0 -17 -6 -25.5t-13 -12.5q-5 -2 -21.5 -9.5t-29.5 -13.5v94q0 15 -11 26t-26 11q-16 0 -26.5 -11t-10.5 -26v-497q0 -15 10.5 -26t26.5 -11
q15 0 26 11t11 26v203h-3q-5 0 -9 3q-4 2 -8 6.5t-8 12.5l-24 48h88q15 0 24.5 -8.5t9.5 -28.5v-247z" />
    <glyph glyph-name="H" unicode="H" horiz-adv-x="478" 
d="M322 684q16 0 22 -9t6 -18v-657h-70v298q-2 15 -17 15h-76v-313h-70v657q0 9 6 18t22 9h42v-276q0 -15 6 -20t18 -5h69v301h42v0z" />
    <glyph glyph-name="I" unicode="I" horiz-adv-x="305" 
d="M150 684q16 0 22 -9.5t6 -17.5v-657h-50q-12 0 -15.5 5t-4.5 10v669h42v0z" />
    <glyph glyph-name="J" unicode="J" horiz-adv-x="412" 
d="M256 684q17 0 23 -9.5t6 -17.5v-575q0 -35 -24.5 -60t-59.5 -27h-44q-36 0 -60.5 25.5t-24.5 61.5v13q0 17 6 25.5t14 12.5q4 2 19.5 8.5t29.5 12.5v-60q0 -16 10.5 -27t26.5 -11q15 0 26 11t11 27v590h41v0z" />
    <glyph glyph-name="K" unicode="K" horiz-adv-x="466" 
d="M352 0h-74l-94 307v-307h-69v660q0 17 8.5 22t14.5 5h46v-250l87 248h72l-109 -309z" />
    <glyph glyph-name="L" unicode="L" horiz-adv-x="479" 
d="M370 70q-5 -14 -12.5 -30t-9.5 -21q-4 -7 -12.5 -13t-25.5 -6h-168v684h49q9 0 15 -6t6 -15v-593h158z" />
    <glyph glyph-name="M" unicode="M" horiz-adv-x="531" 
d="M403 684v-684h-70v353l-53 -234h-21q-15 0 -25 6.5t-15.5 15.5t-8 18t-3.5 15l-41 179v-353h-70v684h43q8 0 14 -3q5 -2 10 -7.5t7 -14.5l81 -393l77 393q1 3 6.5 14t24.5 11h44z" />
    <glyph glyph-name="N" unicode="N" horiz-adv-x="462" 
d="M335 684v-684h-32q-14 0 -23 5t-14 12t-7.5 14.5t-3.5 12.5l-75 338v-382h-70v684h32q30 0 38.5 -11.5t11.5 -26.5l74 -356v394h69z" />
    <glyph glyph-name="O" unicode="O" horiz-adv-x="472" 
d="M227 56q16 0 27 11t11 27v495q0 16 -11 27t-27 11h-11q-15 -1 -25.5 -11.5t-10.5 -26.5v-495q0 -16 10.5 -26.5t26.5 -11.5h10v0zM251 688q34 -2 59 -27t25 -60v-520q0 -18 -6.5 -33t-18 -26.5t-27 -18.5t-32.5 -8h-54q-36 0 -61.5 25t-25.5 61v520q0 36 25.5 61.5
t61.5 25.5h54v0z" />
    <glyph glyph-name="P" unicode="P" horiz-adv-x="444" 
d="M273 584q-2 14 -12.5 24t-24.5 10h-37v-241h37q14 0 24.5 9.5t12.5 23.5v174zM251 684q18 0 34 -6.5t28.5 -18.5t20 -27.5t7.5 -33.5v-177q0 -50 -25 -82t-76 -32h-41v-307h-50q-13 0 -16.5 5.5t-3.5 9.5v669h122v0z" />
    <glyph glyph-name="Q" unicode="Q" horiz-adv-x="475" 
d="M265 589q0 16 -11 27t-26 11h-10q-15 -1 -25.5 -11.5t-10.5 -26.5v-495q0 -16 10.5 -26.5t25.5 -11.5h10q8 0 17 3.5t15 12.5l-20 41q-4 8 -3 14q1 5 5 9.5t17 4.5h6v448zM370 -4h-55q-5 0 -8.5 2.5t-8.5 13.5q-11 -14 -26.5 -15.5t-25.5 -1.5h-48q-18 0 -33.5 6.5
t-27.5 18.5t-19 27.5t-7 33.5v520q0 36 25.5 61.5t61.5 25.5h53q35 -2 59.5 -27t24.5 -60v-530z" />
    <glyph glyph-name="R" unicode="R" horiz-adv-x="456" 
d="M222 359q15 0 26 8.5t11 31.5v180q0 20 -11 27.5t-26 7.5h-37v-255h37v0zM330 0h-71v250q0 26 -11 35t-26 9h-37v-294h-70v684h128q18 0 34 -6.5t27.5 -18t18.5 -27t7 -33.5v-212q0 -20 -4.5 -32t-9.5 -18q-6 -7 -13 -10q7 -4 13 -13q5 -8 9.5 -20.5t4.5 -31.5v-262z" />
    <glyph glyph-name="S" unicode="S" horiz-adv-x="408" 
d="M259 534q-5 -2 -21.5 -9.5t-29.5 -13.5v78q0 16 -11 27t-27 11q-15 0 -26 -11t-11 -27v-65q1 -12 5 -26q3 -12 9 -29t17 -37l83 -156q8 -19 15 -37q6 -16 11 -35t5 -36v-86q0 -36 -25.5 -61.5t-61.5 -25.5h-44q-35 2 -59.5 26.5t-24.5 59.5v70q0 17 6 25.5t13 12.5
q5 2 21 9.5t30 13.5v-119q0 -15 11 -25.5t26 -10.5q16 0 26.5 10.5t10.5 26.5v77q-1 12 -5 26q-3 12 -8.5 29t-16.5 37l-84 157q-9 19 -15 37q-6 16 -10.5 35t-4.5 36v70q0 18 7 34t18.5 28.5t27.5 20t34 7.5h44q17 0 32.5 -7.5t26.5 -20t18 -29t7 -33.5v-26q0 -17 -6 -25.5
t-13 -12.5z" />
    <glyph glyph-name="T" unicode="T" horiz-adv-x="370" 
d="M266 684q-6 -13 -13.5 -29.5t-9.5 -20.5q-3 -7 -11.5 -13t-25.5 -6h-55q-8 0 -12.5 -5t-4.5 -12v-598h-54q-12 0 -15.5 5.5t-4.5 9.5v600h-98v48q0 9 6 15t15 6h283z" />
    <glyph glyph-name="U" unicode="U" horiz-adv-x="470" 
d="M335 684v-603q-1 -35 -25 -59.5t-59 -26.5h-54q-18 0 -34 7t-27.5 18.5t-18.5 27t-7 33.5v584q0 8 6.5 13.5t14.5 5.5h49v-590q0 -15 10.5 -26t25.5 -11h11q16 0 27 10.5t11 26.5v590h70z" />
    <glyph glyph-name="V" unicode="V" horiz-adv-x="434" 
d="M315 684l-105 -684h-30h-5q-13 0 -21 6.5t-12.5 15t-6 16.5t-1.5 10l-99 636h54q4 0 11 -4.5t10 -21.5l65 -429l70 455h70z" />
    <glyph glyph-name="W" unicode="W" horiz-adv-x="515" 
d="M409 684l-83 -684h-66l-47 347l-48 -347h-64l-86 684h55q12 0 16 -5t5 -9l47 -375l34 237q5 30 16 42.5t45 12.5h8l46 -292l46 375q1 4 5 9t15 5h56z" />
    <glyph glyph-name="X" unicode="X" horiz-adv-x="436" 
d="M30 0l108 362l-92 322h55q2 0 12 -3t15 -20l50 -183l47 183q5 17 15 20t12 3h56l-89 -323l102 -361h-76l-64 248l-70 -248h-81z" />
    <glyph glyph-name="Y" unicode="Y" horiz-adv-x="438" 
d="M321 684l-84 -399v-285h-49q-9 0 -15 6t-6 14v265l-84 399h51q2 0 11 -3t12 -20l45 -260l45 260q2 16 11 19.5t11 3.5h52z" />
    <glyph glyph-name="Z" unicode="Z" horiz-adv-x="490" 
d="M177 88q-2 -8 1.5 -13t10.5 -5h191l-23 -51q-3 -7 -12 -13t-26 -6h-254l201 596q2 7 -1 12t-12 5h-80q-17 0 -25.5 6t-11.5 13q-2 5 -9.5 21.5t-13.5 29.5h265l-201 -595v0z" />
    <glyph glyph-name="bracketleft" unicode="[" horiz-adv-x="410" 
d="M260 26q17 0 25.5 -6t12.5 -13q2 -5 9.5 -21t13.5 -30h-115q-14 0 -21 7t-11 16q-4 11 -5 24v678q1 12 5 23q4 9 11 16.5t21 7.5h115q-6 -14 -13.5 -30.5t-9.5 -20.5q-4 -7 -12.5 -13t-25.5 -6h-10q-5 0 -8 -3.5t-3 -8.5v-608q0 -5 3 -8.5t8 -3.5h10v0z" />
    <glyph glyph-name="backslash" unicode="\" horiz-adv-x="451" 
d="M104 702h52q2 0 10.5 -3t13.5 -20l176 -705h-53q-2 0 -10.5 3t-12.5 20z" />
    <glyph glyph-name="bracketright" unicode="]" horiz-adv-x="410" 
d="M229 26h10q5 0 8 3.5t3 8.5v608q0 5 -3 8.5t-8 3.5h-10q-17 0 -25.5 6t-11.5 13q-2 4 -9.5 20.5t-13.5 30.5h115q14 0 21 -7.5t11 -16.5q4 -11 5 -23v-678q-1 -13 -5 -24q-4 -9 -11 -16t-21 -7h-115q6 14 13.5 30t9.5 21q3 7 11.5 13t25.5 6z" />
    <glyph glyph-name="asciicircum" unicode="^" 
d="M222 269q-7 0 -9 1l-4 2l-50 21q-5 2 -6.5 4.5t-3.5 4.5q-2 3 -6 13t-7 17h25v2q0 3 -1 4q-2 2 -8 2h-26q-13 0 -19 4.5t-8 9.5q-2 3 -7.5 16t-9.5 21h103q5 0 8.5 1t5.5 1l12 6q1 0 3 1q4 2 8 2q5 0 9 -2q2 -1 3 -1l12 -5q2 -1 5.5 -2t8.5 -1h102q-3 -8 -8.5 -21
t-7.5 -16q-2 -5 -8.5 -9.5t-19.5 -4.5h-25q-7 0 -8 -2q-1 -1 -1 -4v-1l1 -1h24q-5 -10 -8.5 -19t-5.5 -11q-2 -6 -9 -9l-51 -21l-4 -2q-2 -1 -9 -1z" />
    <glyph glyph-name="underscore" unicode="_" 
d="M222 269q-7 0 -9 1l-4 2l-50 21q-5 2 -6.5 4.5t-3.5 4.5q-2 3 -6 13t-7 17h25v2q0 3 -1 4q-2 2 -8 2h-26q-13 0 -19 4.5t-8 9.5q-2 3 -7.5 16t-9.5 21h103q5 0 8.5 1t5.5 1l12 6q1 0 3 1q4 2 8 2q5 0 9 -2q2 -1 3 -1l12 -5q2 -1 5.5 -2t8.5 -1h102q-3 -8 -8.5 -21
t-7.5 -16q-2 -5 -8.5 -9.5t-19.5 -4.5h-25q-7 0 -8 -2q-1 -1 -1 -4v-1l1 -1h24q-5 -10 -8.5 -19t-5.5 -11q-2 -6 -9 -9l-51 -21l-4 -2q-2 -1 -9 -1z" />
    <glyph glyph-name="grave" unicode="`" horiz-adv-x="274" 
d="M196 904q-1 2 -1 4q0 4 8 4h53l38 -83h-43q-2 0 -14.5 2.5t-20.5 19.5l-20 53v0z" />
    <glyph glyph-name="a" unicode="a" horiz-adv-x="465" 
d="M345 0h-77l-61 472l-62 -472h-77l104 684h37q23 0 29.5 -11.5t8.5 -25.5z" />
    <glyph glyph-name="b" unicode="b" horiz-adv-x="465" 
d="M259 579q0 20 -11 27.5t-26 7.5h-37v-240h37q15 0 26 8.5t11 31.5v165zM259 270q0 23 -11 31.5t-26 8.5h-37v-240h37q15 0 26 7.5t11 27.5v165zM290 342q11 -4 20 -12q8 -7 14 -17.5t6 -26.5v-200q0 -36 -25.5 -61t-61.5 -25h-128v340v2v1v1v340h128q18 0 34 -6.5
t27.5 -18t18.5 -27t7 -33.5v-201q0 -17 -6 -27t-14 -17q-9 -8 -20 -12z" />
    <glyph glyph-name="c" unicode="c" horiz-adv-x="456" 
d="M326 82q0 -35 -24.5 -60t-59.5 -27h-44q-36 0 -61 25.5t-25 61.5v259v1v259q0 36 25 61.5t61 25.5h44q35 -2 59.5 -27t24.5 -60v-103q0 -17 -6 -25.5t-13 -12.5q-5 -2 -21 -9.5t-30 -13.5v153q0 15 -11 24.5t-26 9.5q-16 0 -26.5 -9.5t-10.5 -24.5v-248v-1v-248
q0 -15 10.5 -26t26.5 -11q15 0 26 11t11 26v92q0 17 6 25.5t13 12.5q5 2 21.5 9.5t29.5 13.5v-164z" />
    <glyph glyph-name="d" unicode="d" horiz-adv-x="472" 
d="M266 574q0 24 -10 34.5t-27 10.5h-47v-554h47q17 0 27 10.5t10 34.5v464zM239 684q97 0 97 -98v-487q0 -99 -97 -99h-126v684h126v0z" />
    <glyph glyph-name="e" unicode="e" horiz-adv-x="351" 
d="M95 70h147q7 0 5 -7.5t-7.5 -17t-12 -17.5t-8.5 -9q-3 -7 -11.5 -13t-25.5 -6h-157v664q0 9 6.5 14.5t14.5 5.5h183q7 0 5 -7.5t-7.5 -16.5t-12 -17t-8.5 -9q-3 -7 -11.5 -13.5t-25.5 -6.5h-57q-7 0 -12 -4.5t-5 -11.5v-204h106q7 0 5.5 -7.5t-7 -17t-12.5 -17.5t-9 -9
q-3 -8 -11.5 -14t-25.5 -6l-29 1q-7 0 -12 -5t-5 -12v-237z" />
    <glyph glyph-name="f" unicode="f" horiz-adv-x="385" 
d="M282 684q-6 -13 -13.5 -29.5t-9.5 -20.5q-4 -7 -12 -13.5t-25 -6.5h-78q-7 0 -12 -4.5t-5 -11.5v-214l125 1q-6 -14 -13.5 -30.5t-9.5 -21.5q-4 -7 -12.5 -13t-25.5 -6h-47q-7 0 -12 -4.5t-5 -11.5v-277q0 -9 -6 -15t-15 -6h-49v664q0 8 6.5 14t14.5 6h204z" />
    <glyph glyph-name="g" unicode="g" horiz-adv-x="459" 
d="M327 82q0 -35 -24.5 -60t-59.5 -27h-44q-36 0 -61 25.5t-25 61.5v519q0 36 25 61.5t61 25.5h44q35 -2 59.5 -27t24.5 -60v-44q0 -17 -6 -25.5t-13 -12.5q-5 -2 -21.5 -9.5t-29.5 -13.5v94q0 15 -11 26t-26 11q-16 0 -26.5 -11t-10.5 -26v-497q0 -15 10.5 -26t26.5 -11
q15 0 26 11t11 26v203h-3q-5 0 -9 3q-4 2 -8 6.5t-8 12.5l-24 48h88q15 0 24.5 -8.5t9.5 -28.5v-247z" />
    <glyph glyph-name="h" unicode="h" horiz-adv-x="478" 
d="M322 684q16 0 22 -9t6 -18v-657h-70v298q-2 15 -17 15h-76v-313h-70v657q0 9 6 18t22 9h42v-276q0 -15 6 -20t18 -5h69v301h42v0z" />
    <glyph glyph-name="i" unicode="i" horiz-adv-x="305" 
d="M150 684q16 0 22 -9.5t6 -17.5v-657h-50q-12 0 -15.5 5t-4.5 10v669h42v0z" />
    <glyph glyph-name="j" unicode="j" horiz-adv-x="412" 
d="M256 684q17 0 23 -9.5t6 -17.5v-575q0 -35 -24.5 -60t-59.5 -27h-44q-36 0 -60.5 25.5t-24.5 61.5v13q0 17 6 25.5t14 12.5q4 2 19.5 8.5t29.5 12.5v-60q0 -16 10.5 -27t26.5 -11q15 0 26 11t11 27v590h41v0z" />
    <glyph glyph-name="k" unicode="k" horiz-adv-x="466" 
d="M352 0h-74l-94 307v-307h-69v660q0 17 8.5 22t14.5 5h46v-250l87 248h72l-109 -309z" />
    <glyph glyph-name="l" unicode="l" horiz-adv-x="479" 
d="M370 70q-5 -14 -12.5 -30t-9.5 -21q-4 -7 -12.5 -13t-25.5 -6h-168v684h49q9 0 15 -6t6 -15v-593h158z" />
    <glyph glyph-name="m" unicode="m" horiz-adv-x="531" 
d="M403 684v-684h-70v353l-53 -234h-21q-15 0 -25 6.5t-15.5 15.5t-8 18t-3.5 15l-41 179v-353h-70v684h43q8 0 14 -3q5 -2 10 -7.5t7 -14.5l81 -393l77 393q1 3 6.5 14t24.5 11h44z" />
    <glyph glyph-name="n" unicode="n" horiz-adv-x="462" 
d="M335 684v-684h-32q-14 0 -23 5t-14 12t-7.5 14.5t-3.5 12.5l-75 338v-382h-70v684h32q30 0 38.5 -11.5t11.5 -26.5l74 -356v394h69z" />
    <glyph glyph-name="o" unicode="o" horiz-adv-x="472" 
d="M227 56q16 0 27 11t11 27v495q0 16 -11 27t-27 11h-11q-15 -1 -25.5 -11.5t-10.5 -26.5v-495q0 -16 10.5 -26.5t26.5 -11.5h10v0zM251 688q34 -2 59 -27t25 -60v-520q0 -18 -6.5 -33t-18 -26.5t-27 -18.5t-32.5 -8h-54q-36 0 -61.5 25t-25.5 61v520q0 36 25.5 61.5
t61.5 25.5h54v0z" />
    <glyph glyph-name="p" unicode="p" horiz-adv-x="444" 
d="M273 584q-2 14 -12.5 24t-24.5 10h-37v-241h37q14 0 24.5 9.5t12.5 23.5v174zM251 684q18 0 34 -6.5t28.5 -18.5t20 -27.5t7.5 -33.5v-177q0 -50 -25 -82t-76 -32h-41v-307h-50q-13 0 -16.5 5.5t-3.5 9.5v669h122v0z" />
    <glyph glyph-name="q" unicode="q" horiz-adv-x="475" 
d="M265 589q0 16 -11 27t-26 11h-10q-15 -1 -25.5 -11.5t-10.5 -26.5v-495q0 -16 10.5 -26.5t25.5 -11.5h10q8 0 17 3.5t15 12.5l-20 41q-4 8 -3 14q1 5 5 9.5t17 4.5h6v448zM370 -4h-55q-5 0 -8.5 2.5t-8.5 13.5q-11 -14 -26.5 -15.5t-25.5 -1.5h-48q-18 0 -33.5 6.5
t-27.5 18.5t-19 27.5t-7 33.5v520q0 36 25.5 61.5t61.5 25.5h53q35 -2 59.5 -27t24.5 -60v-530z" />
    <glyph glyph-name="r" unicode="r" horiz-adv-x="456" 
d="M222 359q15 0 26 8.5t11 31.5v180q0 20 -11 27.5t-26 7.5h-37v-255h37v0zM330 0h-71v250q0 26 -11 35t-26 9h-37v-294h-70v684h128q18 0 34 -6.5t27.5 -18t18.5 -27t7 -33.5v-212q0 -20 -4.5 -32t-9.5 -18q-6 -7 -13 -10q7 -4 13 -13q5 -8 9.5 -20.5t4.5 -31.5v-262z" />
    <glyph glyph-name="s" unicode="s" horiz-adv-x="408" 
d="M259 534q-5 -2 -21.5 -9.5t-29.5 -13.5v78q0 16 -11 27t-27 11q-15 0 -26 -11t-11 -27v-65q1 -12 5 -26q3 -12 9 -29t17 -37l83 -156q8 -19 15 -37q6 -16 11 -35t5 -36v-86q0 -36 -25.5 -61.5t-61.5 -25.5h-44q-35 2 -59.5 26.5t-24.5 59.5v70q0 17 6 25.5t13 12.5
q5 2 21 9.5t30 13.5v-119q0 -15 11 -25.5t26 -10.5q16 0 26.5 10.5t10.5 26.5v77q-1 12 -5 26q-3 12 -8.5 29t-16.5 37l-84 157q-9 19 -15 37q-6 16 -10.5 35t-4.5 36v70q0 18 7 34t18.5 28.5t27.5 20t34 7.5h44q17 0 32.5 -7.5t26.5 -20t18 -29t7 -33.5v-26q0 -17 -6 -25.5
t-13 -12.5z" />
    <glyph glyph-name="t" unicode="t" horiz-adv-x="370" 
d="M266 684q-6 -13 -13.5 -29.5t-9.5 -20.5q-3 -7 -11.5 -13t-25.5 -6h-55q-8 0 -12.5 -5t-4.5 -12v-598h-54q-12 0 -15.5 5.5t-4.5 9.5v600h-98v48q0 9 6 15t15 6h283z" />
    <glyph glyph-name="u" unicode="u" horiz-adv-x="470" 
d="M335 684v-603q-1 -35 -25 -59.5t-59 -26.5h-54q-18 0 -34 7t-27.5 18.5t-18.5 27t-7 33.5v584q0 8 6.5 13.5t14.5 5.5h49v-590q0 -15 10.5 -26t25.5 -11h11q16 0 27 10.5t11 26.5v590h70z" />
    <glyph glyph-name="v" unicode="v" horiz-adv-x="434" 
d="M315 684l-105 -684h-30h-5q-13 0 -21 6.5t-12.5 15t-6 16.5t-1.5 10l-99 636h54q4 0 11 -4.5t10 -21.5l65 -429l70 455h70z" />
    <glyph glyph-name="w" unicode="w" horiz-adv-x="515" 
d="M409 684l-83 -684h-66l-47 347l-48 -347h-64l-86 684h55q12 0 16 -5t5 -9l47 -375l34 237q5 30 16 42.5t45 12.5h8l46 -292l46 375q1 4 5 9t15 5h56z" />
    <glyph glyph-name="x" unicode="x" horiz-adv-x="436" 
d="M30 0l108 362l-92 322h55q2 0 12 -3t15 -20l50 -183l47 183q5 17 15 20t12 3h56l-89 -323l102 -361h-76l-64 248l-70 -248h-81z" />
    <glyph glyph-name="y" unicode="y" horiz-adv-x="438" 
d="M321 684l-84 -399v-285h-49q-9 0 -15 6t-6 14v265l-84 399h51q2 0 11 -3t12 -20l45 -260l45 260q2 16 11 19.5t11 3.5h52z" />
    <glyph glyph-name="z" unicode="z" horiz-adv-x="490" 
d="M177 88q-2 -8 1.5 -13t10.5 -5h191l-23 -51q-3 -7 -12 -13t-26 -6h-254l201 596q2 7 -1 12t-12 5h-80q-17 0 -25.5 6t-11.5 13q-2 5 -9.5 21.5t-13.5 29.5h265l-201 -595v0z" />
    <glyph glyph-name="braceleft" unicode="{" horiz-adv-x="410" 
d="M260 26q17 0 25.5 -6t12.5 -13q2 -5 9.5 -21t13.5 -30h-115q-14 0 -21 7t-11 16q-4 11 -5 24v678q1 12 5 23q4 9 11 16.5t21 7.5h115q-6 -14 -13.5 -30.5t-9.5 -20.5q-4 -7 -12.5 -13t-25.5 -6h-10q-5 0 -8 -3.5t-3 -8.5v-608q0 -5 3 -8.5t8 -3.5h10v0z" />
    <glyph glyph-name="bar" unicode="|" 
d="M222 269q-7 0 -9 1l-4 2l-50 21q-5 2 -6.5 4.5t-3.5 4.5q-2 3 -6 13t-7 17h25v2q0 3 -1 4q-2 2 -8 2h-26q-13 0 -19 4.5t-8 9.5q-2 3 -7.5 16t-9.5 21h103q5 0 8.5 1t5.5 1l12 6q1 0 3 1q4 2 8 2q5 0 9 -2q2 -1 3 -1l12 -5q2 -1 5.5 -2t8.5 -1h102q-3 -8 -8.5 -21
t-7.5 -16q-2 -5 -8.5 -9.5t-19.5 -4.5h-25q-7 0 -8 -2q-1 -1 -1 -4v-1l1 -1h24q-5 -10 -8.5 -19t-5.5 -11q-2 -6 -9 -9l-51 -21l-4 -2q-2 -1 -9 -1z" />
    <glyph glyph-name="braceright" unicode="}" horiz-adv-x="410" 
d="M229 26h10q5 0 8 3.5t3 8.5v608q0 5 -3 8.5t-8 3.5h-10q-17 0 -25.5 6t-11.5 13q-2 4 -9.5 20.5t-13.5 30.5h115q14 0 21 -7.5t11 -16.5q4 -11 5 -23v-678q-1 -13 -5 -24q-4 -9 -11 -16t-21 -7h-115q6 14 13.5 30t9.5 21q3 7 11.5 13t25.5 6z" />
    <glyph glyph-name="asciitilde" unicode="~" horiz-adv-x="471" 
d="M138 714q-4 34 8 47t28 15q18 2 43 -6q24 -11 36.5 -10t12.5 20q0 3 1 6q2 5 10 5h27q1 -8 0 -23.5t-8 -28.5t-22.5 -19t-43.5 6q-27 11 -39.5 13t-14.5 -18q0 -4 -4 -6q-2 -1 -5 -1h-29z" />
    <glyph glyph-name="exclamdown" unicode="&#xa1;" horiz-adv-x="384" 
d="M245 602h-58v66q0 8 6.5 14t14.5 6h49v-75q0 -8 -6 -10q-3 -1 -6 -1zM257 21q0 -8 -6 -14.5t-15 -6.5h-49v532q0 8 6 10q3 1 6 1h58v-518v-4z" />
    <glyph glyph-name="cent" unicode="&#xa2;" 
d="M222 269q-7 0 -9 1l-4 2l-50 21q-5 2 -6.5 4.5t-3.5 4.5q-2 3 -6 13t-7 17h25v2q0 3 -1 4q-2 2 -8 2h-26q-13 0 -19 4.5t-8 9.5q-2 3 -7.5 16t-9.5 21h103q5 0 8.5 1t5.5 1l12 6q1 0 3 1q4 2 8 2q5 0 9 -2q2 -1 3 -1l12 -5q2 -1 5.5 -2t8.5 -1h102q-3 -8 -8.5 -21
t-7.5 -16q-2 -5 -8.5 -9.5t-19.5 -4.5h-25q-7 0 -8 -2q-1 -1 -1 -4v-1l1 -1h24q-5 -10 -8.5 -19t-5.5 -11q-2 -6 -9 -9l-51 -21l-4 -2q-2 -1 -9 -1z" />
    <glyph glyph-name="sterling" unicode="&#xa3;" 
d="M222 269q-7 0 -9 1l-4 2l-50 21q-5 2 -6.5 4.5t-3.5 4.5q-2 3 -6 13t-7 17h25v2q0 3 -1 4q-2 2 -8 2h-26q-13 0 -19 4.5t-8 9.5q-2 3 -7.5 16t-9.5 21h103q5 0 8.5 1t5.5 1l12 6q1 0 3 1q4 2 8 2q5 0 9 -2q2 -1 3 -1l12 -5q2 -1 5.5 -2t8.5 -1h102q-3 -8 -8.5 -21
t-7.5 -16q-2 -5 -8.5 -9.5t-19.5 -4.5h-25q-7 0 -8 -2q-1 -1 -1 -4v-1l1 -1h24q-5 -10 -8.5 -19t-5.5 -11q-2 -6 -9 -9l-51 -21l-4 -2q-2 -1 -9 -1z" />
    <glyph glyph-name="yen" unicode="&#xa5;" 
d="M222 269q-7 0 -9 1l-4 2l-50 21q-5 2 -6.5 4.5t-3.5 4.5q-2 3 -6 13t-7 17h25v2q0 3 -1 4q-2 2 -8 2h-26q-13 0 -19 4.5t-8 9.5q-2 3 -7.5 16t-9.5 21h103q5 0 8.5 1t5.5 1l12 6q1 0 3 1q4 2 8 2q5 0 9 -2q2 -1 3 -1l12 -5q2 -1 5.5 -2t8.5 -1h102q-3 -8 -8.5 -21
t-7.5 -16q-2 -5 -8.5 -9.5t-19.5 -4.5h-25q-7 0 -8 -2q-1 -1 -1 -4v-1l1 -1h24q-5 -10 -8.5 -19t-5.5 -11q-2 -6 -9 -9l-51 -21l-4 -2q-2 -1 -9 -1z" />
    <glyph glyph-name="brokenbar" unicode="&#xa6;" 
d="M222 269q-7 0 -9 1l-4 2l-50 21q-5 2 -6.5 4.5t-3.5 4.5q-2 3 -6 13t-7 17h25v2q0 3 -1 4q-2 2 -8 2h-26q-13 0 -19 4.5t-8 9.5q-2 3 -7.5 16t-9.5 21h103q5 0 8.5 1t5.5 1l12 6q1 0 3 1q4 2 8 2q5 0 9 -2q2 -1 3 -1l12 -5q2 -1 5.5 -2t8.5 -1h102q-3 -8 -8.5 -21
t-7.5 -16q-2 -5 -8.5 -9.5t-19.5 -4.5h-25q-7 0 -8 -2q-1 -1 -1 -4v-1l1 -1h24q-5 -10 -8.5 -19t-5.5 -11q-2 -6 -9 -9l-51 -21l-4 -2q-2 -1 -9 -1z" />
    <glyph glyph-name="section" unicode="&#xa7;" 
d="M222 269q-7 0 -9 1l-4 2l-50 21q-5 2 -6.5 4.5t-3.5 4.5q-2 3 -6 13t-7 17h25v2q0 3 -1 4q-2 2 -8 2h-26q-13 0 -19 4.5t-8 9.5q-2 3 -7.5 16t-9.5 21h103q5 0 8.5 1t5.5 1l12 6q1 0 3 1q4 2 8 2q5 0 9 -2q2 -1 3 -1l12 -5q2 -1 5.5 -2t8.5 -1h102q-3 -8 -8.5 -21
t-7.5 -16q-2 -5 -8.5 -9.5t-19.5 -4.5h-25q-7 0 -8 -2q-1 -1 -1 -4v-1l1 -1h24q-5 -10 -8.5 -19t-5.5 -11q-2 -6 -9 -9l-51 -21l-4 -2q-2 -1 -9 -1z" />
    <glyph glyph-name="dieresis" unicode="&#xa8;" 
d="M222 269q-7 0 -9 1l-4 2l-50 21q-5 2 -6.5 4.5t-3.5 4.5q-2 3 -6 13t-7 17h25v2q0 3 -1 4q-2 2 -8 2h-26q-13 0 -19 4.5t-8 9.5q-2 3 -7.5 16t-9.5 21h103q5 0 8.5 1t5.5 1l12 6q1 0 3 1q4 2 8 2q5 0 9 -2q2 -1 3 -1l12 -5q2 -1 5.5 -2t8.5 -1h102q-3 -8 -8.5 -21
t-7.5 -16q-2 -5 -8.5 -9.5t-19.5 -4.5h-25q-7 0 -8 -2q-1 -1 -1 -4v-1l1 -1h24q-5 -10 -8.5 -19t-5.5 -11q-2 -6 -9 -9l-51 -21l-4 -2q-2 -1 -9 -1z" />
    <glyph glyph-name="copyright" unicode="&#xa9;" 
d="M222 269q-7 0 -9 1l-4 2l-50 21q-5 2 -6.5 4.5t-3.5 4.5q-2 3 -6 13t-7 17h25v2q0 3 -1 4q-2 2 -8 2h-26q-13 0 -19 4.5t-8 9.5q-2 3 -7.5 16t-9.5 21h103q5 0 8.5 1t5.5 1l12 6q1 0 3 1q4 2 8 2q5 0 9 -2q2 -1 3 -1l12 -5q2 -1 5.5 -2t8.5 -1h102q-3 -8 -8.5 -21
t-7.5 -16q-2 -5 -8.5 -9.5t-19.5 -4.5h-25q-7 0 -8 -2q-1 -1 -1 -4v-1l1 -1h24q-5 -10 -8.5 -19t-5.5 -11q-2 -6 -9 -9l-51 -21l-4 -2q-2 -1 -9 -1z" />
    <glyph glyph-name="ordfeminine" unicode="&#xaa;" 
d="M222 269q-7 0 -9 1l-4 2l-50 21q-5 2 -6.5 4.5t-3.5 4.5q-2 3 -6 13t-7 17h25v2q0 3 -1 4q-2 2 -8 2h-26q-13 0 -19 4.5t-8 9.5q-2 3 -7.5 16t-9.5 21h103q5 0 8.5 1t5.5 1l12 6q1 0 3 1q4 2 8 2q5 0 9 -2q2 -1 3 -1l12 -5q2 -1 5.5 -2t8.5 -1h102q-3 -8 -8.5 -21
t-7.5 -16q-2 -5 -8.5 -9.5t-19.5 -4.5h-25q-7 0 -8 -2q-1 -1 -1 -4v-1l1 -1h24q-5 -10 -8.5 -19t-5.5 -11q-2 -6 -9 -9l-51 -21l-4 -2q-2 -1 -9 -1z" />
    <glyph glyph-name="guillemotleft" unicode="&#xab;" 
d="M222 269q-7 0 -9 1l-4 2l-50 21q-5 2 -6.5 4.5t-3.5 4.5q-2 3 -6 13t-7 17h25v2q0 3 -1 4q-2 2 -8 2h-26q-13 0 -19 4.5t-8 9.5q-2 3 -7.5 16t-9.5 21h103q5 0 8.5 1t5.5 1l12 6q1 0 3 1q4 2 8 2q5 0 9 -2q2 -1 3 -1l12 -5q2 -1 5.5 -2t8.5 -1h102q-3 -8 -8.5 -21
t-7.5 -16q-2 -5 -8.5 -9.5t-19.5 -4.5h-25q-7 0 -8 -2q-1 -1 -1 -4v-1l1 -1h24q-5 -10 -8.5 -19t-5.5 -11q-2 -6 -9 -9l-51 -21l-4 -2q-2 -1 -9 -1z" />
    <glyph glyph-name="logicalnot" unicode="&#xac;" 
d="M222 269q-7 0 -9 1l-4 2l-50 21q-5 2 -6.5 4.5t-3.5 4.5q-2 3 -6 13t-7 17h25v2q0 3 -1 4q-2 2 -8 2h-26q-13 0 -19 4.5t-8 9.5q-2 3 -7.5 16t-9.5 21h103q5 0 8.5 1t5.5 1l12 6q1 0 3 1q4 2 8 2q5 0 9 -2q2 -1 3 -1l12 -5q2 -1 5.5 -2t8.5 -1h102q-3 -8 -8.5 -21
t-7.5 -16q-2 -5 -8.5 -9.5t-19.5 -4.5h-25q-7 0 -8 -2q-1 -1 -1 -4v-1l1 -1h24q-5 -10 -8.5 -19t-5.5 -11q-2 -6 -9 -9l-51 -21l-4 -2q-2 -1 -9 -1z" />
    <glyph glyph-name="registered" unicode="&#xae;" 
d="M222 269q-7 0 -9 1l-4 2l-50 21q-5 2 -6.5 4.5t-3.5 4.5q-2 3 -6 13t-7 17h25v2q0 3 -1 4q-2 2 -8 2h-26q-13 0 -19 4.5t-8 9.5q-2 3 -7.5 16t-9.5 21h103q5 0 8.5 1t5.5 1l12 6q1 0 3 1q4 2 8 2q5 0 9 -2q2 -1 3 -1l12 -5q2 -1 5.5 -2t8.5 -1h102q-3 -8 -8.5 -21
t-7.5 -16q-2 -5 -8.5 -9.5t-19.5 -4.5h-25q-7 0 -8 -2q-1 -1 -1 -4v-1l1 -1h24q-5 -10 -8.5 -19t-5.5 -11q-2 -6 -9 -9l-51 -21l-4 -2q-2 -1 -9 -1z" />
    <glyph glyph-name="macron" unicode="&#xaf;" 
d="M222 269q-7 0 -9 1l-4 2l-50 21q-5 2 -6.5 4.5t-3.5 4.5q-2 3 -6 13t-7 17h25v2q0 3 -1 4q-2 2 -8 2h-26q-13 0 -19 4.5t-8 9.5q-2 3 -7.5 16t-9.5 21h103q5 0 8.5 1t5.5 1l12 6q1 0 3 1q4 2 8 2q5 0 9 -2q2 -1 3 -1l12 -5q2 -1 5.5 -2t8.5 -1h102q-3 -8 -8.5 -21
t-7.5 -16q-2 -5 -8.5 -9.5t-19.5 -4.5h-25q-7 0 -8 -2q-1 -1 -1 -4v-1l1 -1h24q-5 -10 -8.5 -19t-5.5 -11q-2 -6 -9 -9l-51 -21l-4 -2q-2 -1 -9 -1z" />
    <glyph glyph-name="degree" unicode="&#xb0;" 
d="M222 269q-7 0 -9 1l-4 2l-50 21q-5 2 -6.5 4.5t-3.5 4.5q-2 3 -6 13t-7 17h25v2q0 3 -1 4q-2 2 -8 2h-26q-13 0 -19 4.5t-8 9.5q-2 3 -7.5 16t-9.5 21h103q5 0 8.5 1t5.5 1l12 6q1 0 3 1q4 2 8 2q5 0 9 -2q2 -1 3 -1l12 -5q2 -1 5.5 -2t8.5 -1h102q-3 -8 -8.5 -21
t-7.5 -16q-2 -5 -8.5 -9.5t-19.5 -4.5h-25q-7 0 -8 -2q-1 -1 -1 -4v-1l1 -1h24q-5 -10 -8.5 -19t-5.5 -11q-2 -6 -9 -9l-51 -21l-4 -2q-2 -1 -9 -1z" />
    <glyph glyph-name="plusminus" unicode="&#xb1;" 
d="M222 269q-7 0 -9 1l-4 2l-50 21q-5 2 -6.5 4.5t-3.5 4.5q-2 3 -6 13t-7 17h25v2q0 3 -1 4q-2 2 -8 2h-26q-13 0 -19 4.5t-8 9.5q-2 3 -7.5 16t-9.5 21h103q5 0 8.5 1t5.5 1l12 6q1 0 3 1q4 2 8 2q5 0 9 -2q2 -1 3 -1l12 -5q2 -1 5.5 -2t8.5 -1h102q-3 -8 -8.5 -21
t-7.5 -16q-2 -5 -8.5 -9.5t-19.5 -4.5h-25q-7 0 -8 -2q-1 -1 -1 -4v-1l1 -1h24q-5 -10 -8.5 -19t-5.5 -11q-2 -6 -9 -9l-51 -21l-4 -2q-2 -1 -9 -1z" />
    <glyph glyph-name="twosuperior" unicode="&#xb2;" 
d="M222 269q-7 0 -9 1l-4 2l-50 21q-5 2 -6.5 4.5t-3.5 4.5q-2 3 -6 13t-7 17h25v2q0 3 -1 4q-2 2 -8 2h-26q-13 0 -19 4.5t-8 9.5q-2 3 -7.5 16t-9.5 21h103q5 0 8.5 1t5.5 1l12 6q1 0 3 1q4 2 8 2q5 0 9 -2q2 -1 3 -1l12 -5q2 -1 5.5 -2t8.5 -1h102q-3 -8 -8.5 -21
t-7.5 -16q-2 -5 -8.5 -9.5t-19.5 -4.5h-25q-7 0 -8 -2q-1 -1 -1 -4v-1l1 -1h24q-5 -10 -8.5 -19t-5.5 -11q-2 -6 -9 -9l-51 -21l-4 -2q-2 -1 -9 -1z" />
    <glyph glyph-name="threesuperior" unicode="&#xb3;" 
d="M222 269q-7 0 -9 1l-4 2l-50 21q-5 2 -6.5 4.5t-3.5 4.5q-2 3 -6 13t-7 17h25v2q0 3 -1 4q-2 2 -8 2h-26q-13 0 -19 4.5t-8 9.5q-2 3 -7.5 16t-9.5 21h103q5 0 8.5 1t5.5 1l12 6q1 0 3 1q4 2 8 2q5 0 9 -2q2 -1 3 -1l12 -5q2 -1 5.5 -2t8.5 -1h102q-3 -8 -8.5 -21
t-7.5 -16q-2 -5 -8.5 -9.5t-19.5 -4.5h-25q-7 0 -8 -2q-1 -1 -1 -4v-1l1 -1h24q-5 -10 -8.5 -19t-5.5 -11q-2 -6 -9 -9l-51 -21l-4 -2q-2 -1 -9 -1z" />
    <glyph glyph-name="acute" unicode="&#xb4;" horiz-adv-x="275" 
d="M294 788l-21 -52q-7 -18 -20 -20t-15 -2h-42l37 82h54q5 0 7 -4v-4z" />
    <glyph glyph-name="mu" unicode="&#xb5;" 
d="M222 269q-7 0 -9 1l-4 2l-50 21q-5 2 -6.5 4.5t-3.5 4.5q-2 3 -6 13t-7 17h25v2q0 3 -1 4q-2 2 -8 2h-26q-13 0 -19 4.5t-8 9.5q-2 3 -7.5 16t-9.5 21h103q5 0 8.5 1t5.5 1l12 6q1 0 3 1q4 2 8 2q5 0 9 -2q2 -1 3 -1l12 -5q2 -1 5.5 -2t8.5 -1h102q-3 -8 -8.5 -21
t-7.5 -16q-2 -5 -8.5 -9.5t-19.5 -4.5h-25q-7 0 -8 -2q-1 -1 -1 -4v-1l1 -1h24q-5 -10 -8.5 -19t-5.5 -11q-2 -6 -9 -9l-51 -21l-4 -2q-2 -1 -9 -1z" />
    <glyph glyph-name="paragraph" unicode="&#xb6;" 
d="M222 269q-7 0 -9 1l-4 2l-50 21q-5 2 -6.5 4.5t-3.5 4.5q-2 3 -6 13t-7 17h25v2q0 3 -1 4q-2 2 -8 2h-26q-13 0 -19 4.5t-8 9.5q-2 3 -7.5 16t-9.5 21h103q5 0 8.5 1t5.5 1l12 6q1 0 3 1q4 2 8 2q5 0 9 -2q2 -1 3 -1l12 -5q2 -1 5.5 -2t8.5 -1h102q-3 -8 -8.5 -21
t-7.5 -16q-2 -5 -8.5 -9.5t-19.5 -4.5h-25q-7 0 -8 -2q-1 -1 -1 -4v-1l1 -1h24q-5 -10 -8.5 -19t-5.5 -11q-2 -6 -9 -9l-51 -21l-4 -2q-2 -1 -9 -1z" />
    <glyph glyph-name="periodcentered" unicode="&#xb7;" 
d="M222 269q-7 0 -9 1l-4 2l-50 21q-5 2 -6.5 4.5t-3.5 4.5q-2 3 -6 13t-7 17h25v2q0 3 -1 4q-2 2 -8 2h-26q-13 0 -19 4.5t-8 9.5q-2 3 -7.5 16t-9.5 21h103q5 0 8.5 1t5.5 1l12 6q1 0 3 1q4 2 8 2q5 0 9 -2q2 -1 3 -1l12 -5q2 -1 5.5 -2t8.5 -1h102q-3 -8 -8.5 -21
t-7.5 -16q-2 -5 -8.5 -9.5t-19.5 -4.5h-25q-7 0 -8 -2q-1 -1 -1 -4v-1l1 -1h24q-5 -10 -8.5 -19t-5.5 -11q-2 -6 -9 -9l-51 -21l-4 -2q-2 -1 -9 -1z" />
    <glyph glyph-name="cedilla" unicode="&#xb8;" 
d="M222 269q-7 0 -9 1l-4 2l-50 21q-5 2 -6.5 4.5t-3.5 4.5q-2 3 -6 13t-7 17h25v2q0 3 -1 4q-2 2 -8 2h-26q-13 0 -19 4.5t-8 9.5q-2 3 -7.5 16t-9.5 21h103q5 0 8.5 1t5.5 1l12 6q1 0 3 1q4 2 8 2q5 0 9 -2q2 -1 3 -1l12 -5q2 -1 5.5 -2t8.5 -1h102q-3 -8 -8.5 -21
t-7.5 -16q-2 -5 -8.5 -9.5t-19.5 -4.5h-25q-7 0 -8 -2q-1 -1 -1 -4v-1l1 -1h24q-5 -10 -8.5 -19t-5.5 -11q-2 -6 -9 -9l-51 -21l-4 -2q-2 -1 -9 -1z" />
    <glyph glyph-name="onesuperior" unicode="&#xb9;" 
d="M222 269q-7 0 -9 1l-4 2l-50 21q-5 2 -6.5 4.5t-3.5 4.5q-2 3 -6 13t-7 17h25v2q0 3 -1 4q-2 2 -8 2h-26q-13 0 -19 4.5t-8 9.5q-2 3 -7.5 16t-9.5 21h103q5 0 8.5 1t5.5 1l12 6q1 0 3 1q4 2 8 2q5 0 9 -2q2 -1 3 -1l12 -5q2 -1 5.5 -2t8.5 -1h102q-3 -8 -8.5 -21
t-7.5 -16q-2 -5 -8.5 -9.5t-19.5 -4.5h-25q-7 0 -8 -2q-1 -1 -1 -4v-1l1 -1h24q-5 -10 -8.5 -19t-5.5 -11q-2 -6 -9 -9l-51 -21l-4 -2q-2 -1 -9 -1z" />
    <glyph glyph-name="ordmasculine" unicode="&#xba;" 
d="M222 269q-7 0 -9 1l-4 2l-50 21q-5 2 -6.5 4.5t-3.5 4.5q-2 3 -6 13t-7 17h25v2q0 3 -1 4q-2 2 -8 2h-26q-13 0 -19 4.5t-8 9.5q-2 3 -7.5 16t-9.5 21h103q5 0 8.5 1t5.5 1l12 6q1 0 3 1q4 2 8 2q5 0 9 -2q2 -1 3 -1l12 -5q2 -1 5.5 -2t8.5 -1h102q-3 -8 -8.5 -21
t-7.5 -16q-2 -5 -8.5 -9.5t-19.5 -4.5h-25q-7 0 -8 -2q-1 -1 -1 -4v-1l1 -1h24q-5 -10 -8.5 -19t-5.5 -11q-2 -6 -9 -9l-51 -21l-4 -2q-2 -1 -9 -1z" />
    <glyph glyph-name="guillemotright" unicode="&#xbb;" 
d="M222 269q-7 0 -9 1l-4 2l-50 21q-5 2 -6.5 4.5t-3.5 4.5q-2 3 -6 13t-7 17h25v2q0 3 -1 4q-2 2 -8 2h-26q-13 0 -19 4.5t-8 9.5q-2 3 -7.5 16t-9.5 21h103q5 0 8.5 1t5.5 1l12 6q1 0 3 1q4 2 8 2q5 0 9 -2q2 -1 3 -1l12 -5q2 -1 5.5 -2t8.5 -1h102q-3 -8 -8.5 -21
t-7.5 -16q-2 -5 -8.5 -9.5t-19.5 -4.5h-25q-7 0 -8 -2q-1 -1 -1 -4v-1l1 -1h24q-5 -10 -8.5 -19t-5.5 -11q-2 -6 -9 -9l-51 -21l-4 -2q-2 -1 -9 -1z" />
    <glyph glyph-name="onequarter" unicode="&#xbc;" 
d="M222 269q-7 0 -9 1l-4 2l-50 21q-5 2 -6.5 4.5t-3.5 4.5q-2 3 -6 13t-7 17h25v2q0 3 -1 4q-2 2 -8 2h-26q-13 0 -19 4.5t-8 9.5q-2 3 -7.5 16t-9.5 21h103q5 0 8.5 1t5.5 1l12 6q1 0 3 1q4 2 8 2q5 0 9 -2q2 -1 3 -1l12 -5q2 -1 5.5 -2t8.5 -1h102q-3 -8 -8.5 -21
t-7.5 -16q-2 -5 -8.5 -9.5t-19.5 -4.5h-25q-7 0 -8 -2q-1 -1 -1 -4v-1l1 -1h24q-5 -10 -8.5 -19t-5.5 -11q-2 -6 -9 -9l-51 -21l-4 -2q-2 -1 -9 -1z" />
    <glyph glyph-name="onehalf" unicode="&#xbd;" 
d="M222 269q-7 0 -9 1l-4 2l-50 21q-5 2 -6.5 4.5t-3.5 4.5q-2 3 -6 13t-7 17h25v2q0 3 -1 4q-2 2 -8 2h-26q-13 0 -19 4.5t-8 9.5q-2 3 -7.5 16t-9.5 21h103q5 0 8.5 1t5.5 1l12 6q1 0 3 1q4 2 8 2q5 0 9 -2q2 -1 3 -1l12 -5q2 -1 5.5 -2t8.5 -1h102q-3 -8 -8.5 -21
t-7.5 -16q-2 -5 -8.5 -9.5t-19.5 -4.5h-25q-7 0 -8 -2q-1 -1 -1 -4v-1l1 -1h24q-5 -10 -8.5 -19t-5.5 -11q-2 -6 -9 -9l-51 -21l-4 -2q-2 -1 -9 -1z" />
    <glyph glyph-name="threequarters" unicode="&#xbe;" 
d="M222 269q-7 0 -9 1l-4 2l-50 21q-5 2 -6.5 4.5t-3.5 4.5q-2 3 -6 13t-7 17h25v2q0 3 -1 4q-2 2 -8 2h-26q-13 0 -19 4.5t-8 9.5q-2 3 -7.5 16t-9.5 21h103q5 0 8.5 1t5.5 1l12 6q1 0 3 1q4 2 8 2q5 0 9 -2q2 -1 3 -1l12 -5q2 -1 5.5 -2t8.5 -1h102q-3 -8 -8.5 -21
t-7.5 -16q-2 -5 -8.5 -9.5t-19.5 -4.5h-25q-7 0 -8 -2q-1 -1 -1 -4v-1l1 -1h24q-5 -10 -8.5 -19t-5.5 -11q-2 -6 -9 -9l-51 -21l-4 -2q-2 -1 -9 -1z" />
    <glyph glyph-name="questiondown" unicode="&#xbf;" horiz-adv-x="436" 
d="M266 611q0 -8 -6 -10q-3 -1 -6 -1h-58v65q0 9 6 15t14 6h50v-75v0zM115 85q0 -36 25.5 -61.5t61.5 -25.5h44q17 0 32.5 7t27 19t18 27.5t6.5 33.5v27q0 17 -6.5 25.5t-13.5 11.5q-4 2 -20.5 10t-30.5 14v-78q1 -15 -10 -25.5t-27 -10.5q-15 0 -26 10.5t-11 25.5v115
q0 14 8 43q7 25 22 69t44 116q7 19 7 30v61q0 8 -6 10q-3 1 -6 1h-58v-67q0 -6 -1 -11l-2 -10l-3 -9q-6 -12 -15 -37q-8 -21 -20 -56t-30 -89q-3 -7 -5 -17q-5 -18 -5 -46v-113v0z" />
    <glyph glyph-name="Agrave" unicode="&#xc0;" horiz-adv-x="480" 
d="M361 0h-77l-62 472l-61 -472h-77l103 684h38q23 0 29.5 -11.5t8.5 -25.5zM244 722q1 -2 1 -4q0 -4 -8 -4h-52l-38 82h43h5t9.5 -2t11 -6.5t8.5 -13.5l20 -52v0z" />
    <glyph glyph-name="Aacute" unicode="&#xc1;" horiz-adv-x="480" 
d="M238 715h-43l38 82h52q8 0 8 -4q0 -2 -1 -4l-20 -53q-7 -17 -19.5 -19t-14.5 -2zM263 648q-2 14 -8.5 25.5t-29.5 11.5h-38l-103 -685h77l61 472l62 -472h77z" />
    <glyph glyph-name="Acircumflex" unicode="&#xc2;" horiz-adv-x="480" 
d="M361 0h-77l-62 471l-61 -471h-77l103 684h38q23 0 29.5 -11.5t8.5 -25.5zM303 714h-28q-2 0 -13.5 2t-24.5 20l-15 22l-15 -22q-12 -18 -24 -20t-14 -2h-28l57 82h49z" />
    <glyph glyph-name="Atilde" unicode="&#xc3;" horiz-adv-x="480" 
d="M169 715h-29q-4 34 8 47t28 15q18 2 43 -6q24 -11 36 -10t13 20q0 3 1 6q2 5 10 4h27q1 -8 0 -23t-8 -28.5t-22.5 -19.5t-43.5 6t-40 14t-14 -18q0 -4 -4 -6q-2 -1 -5 -1zM263 648q-2 14 -8.5 25.5t-29.5 11.5h-38l-103 -685h77l61 472l62 -472h77z" />
    <glyph glyph-name="Adieresis" unicode="&#xc4;" 
d="M222 269q-7 0 -9 1l-4 2l-50 21q-5 2 -6.5 4.5t-3.5 4.5q-2 3 -6 13t-7 17h25v2q0 3 -1 4q-2 2 -8 2h-26q-13 0 -19 4.5t-8 9.5q-2 3 -7.5 16t-9.5 21h103q5 0 8.5 1t5.5 1l12 6q1 0 3 1q4 2 8 2q5 0 9 -2q2 -1 3 -1l12 -5q2 -1 5.5 -2t8.5 -1h102q-3 -8 -8.5 -21
t-7.5 -16q-2 -5 -8.5 -9.5t-19.5 -4.5h-25q-7 0 -8 -2q-1 -1 -1 -4v-1l1 -1h24q-5 -10 -8.5 -19t-5.5 -11q-2 -6 -9 -9l-51 -21l-4 -2q-2 -1 -9 -1z" />
    <glyph glyph-name="Aring" unicode="&#xc5;" 
d="M222 269q-7 0 -9 1l-4 2l-50 21q-5 2 -6.5 4.5t-3.5 4.5q-2 3 -6 13t-7 17h25v2q0 3 -1 4q-2 2 -8 2h-26q-13 0 -19 4.5t-8 9.5q-2 3 -7.5 16t-9.5 21h103q5 0 8.5 1t5.5 1l12 6q1 0 3 1q4 2 8 2q5 0 9 -2q2 -1 3 -1l12 -5q2 -1 5.5 -2t8.5 -1h102q-3 -8 -8.5 -21
t-7.5 -16q-2 -5 -8.5 -9.5t-19.5 -4.5h-25q-7 0 -8 -2q-1 -1 -1 -4v-1l1 -1h24q-5 -10 -8.5 -19t-5.5 -11q-2 -6 -9 -9l-51 -21l-4 -2q-2 -1 -9 -1z" />
    <glyph glyph-name="AE" unicode="&#xc6;" 
d="M222 269q-7 0 -9 1l-4 2l-50 21q-5 2 -6.5 4.5t-3.5 4.5q-2 3 -6 13t-7 17h25v2q0 3 -1 4q-2 2 -8 2h-26q-13 0 -19 4.5t-8 9.5q-2 3 -7.5 16t-9.5 21h103q5 0 8.5 1t5.5 1l12 6q1 0 3 1q4 2 8 2q5 0 9 -2q2 -1 3 -1l12 -5q2 -1 5.5 -2t8.5 -1h102q-3 -8 -8.5 -21
t-7.5 -16q-2 -5 -8.5 -9.5t-19.5 -4.5h-25q-7 0 -8 -2q-1 -1 -1 -4v-1l1 -1h24q-5 -10 -8.5 -19t-5.5 -11q-2 -6 -9 -9l-51 -21l-4 -2q-2 -1 -9 -1z" />
    <glyph glyph-name="Ccedilla" unicode="&#xc7;" horiz-adv-x="459" 
d="M279 223q4 2 20.5 9.5t30.5 13.5v-164q0 -18 -6.5 -33.5t-18 -27t-27 -18.5t-32.5 -8h-8v-10q38 -10 38 -49q-1 -18 -10 -30q-8 -11 -23 -19t-44 -5l2 8q1 8 7 12q3 2 5 2q8 1 16.5 7.5t7.5 20.5q-1 12 -9 20t-19 8h-5v35h-2q-36 0 -61.5 25.5t-25.5 61.5v259v1v259
q0 36 25.5 61.5t61.5 25.5h44q34 -2 59 -27t25 -60v-103q0 -17 -6.5 -25.5t-13.5 -12.5q-4 -2 -20.5 -9.5t-30.5 -13.5v153q1 15 -10 26t-27 11q-15 0 -26 -11t-11 -26v-248v-1v-248q0 -15 11 -26t26 -11q16 0 27 11t10 26v92q0 17 6.5 25.5t13.5 12.5z" />
    <glyph glyph-name="Egrave" unicode="&#xc8;" horiz-adv-x="455" 
d="M274 722q1 -2 1 -4q0 -4 -7 -4h-55l-38 82h43q2 0 14.5 -2t19.5 -20l22 -52v0zM203 70h147q-6 -14 -13.5 -30t-9.5 -21q-3 -7 -11.5 -13t-25.5 -6h-157v664q0 9 6.5 14.5t14.5 5.5h183q-6 -13 -13.5 -29.5t-9.5 -20.5q-3 -7 -11.5 -13.5t-25.5 -6.5h-57q-7 0 -12 -4.5
t-5 -11.5v-204h106q-6 -14 -13.5 -30.5t-9.5 -20.5q-3 -7 -11.5 -13.5t-25.5 -5.5h-29q-7 0 -12 -5t-5 -12v-237z" />
    <glyph glyph-name="Eacute" unicode="&#xc9;" horiz-adv-x="453" 
d="M201 307q0 8 5 12.5t12 4.5h29q17 0 25.5 6t11.5 13q2 5 10 21t13 30h-106v204q0 7 5 12t12 5h57q17 0 25.5 6t11.5 13q2 5 9.5 21t13.5 30h-183q-8 0 -14.5 -6t-6.5 -14v-665h157q17 0 25.5 6.5t11.5 12.5q2 5 10 21.5t13 29.5h-147v237zM314 789l-22 -52
q-8 -18 -20 -20t-14 -2h-43l37 82h56q7 0 7 -4q0 -2 -1 -4z" />
    <glyph glyph-name="Ecircumflex" unicode="&#xca;" horiz-adv-x="452" 
d="M320 714h-28q-2 0 -14 2.5t-24 19.5l-15 22l-15 -22q-13 -17 -24.5 -19.5t-13.5 -2.5h-28l56 82h49zM200 70h147q-5 -14 -13 -30t-10 -21q-3 -7 -11.5 -13t-25.5 -6h-157v664q0 9 6.5 14.5t14.5 5.5h183q-6 -13 -13.5 -29.5t-9.5 -20.5q-3 -7 -11.5 -13.5t-25.5 -6.5h-57
q-7 0 -12 -4.5t-5 -11.5v-204h106q-5 -14 -13 -30.5t-10 -20.5q-3 -7 -11.5 -13.5t-25.5 -5.5h-29q-7 0 -12 -5t-5 -12v-237z" />
    <glyph glyph-name="Edieresis" unicode="&#xcb;" 
d="M222 269q-7 0 -9 1l-4 2l-50 21q-5 2 -6.5 4.5t-3.5 4.5q-2 3 -6 13t-7 17h25v2q0 3 -1 4q-2 2 -8 2h-26q-13 0 -19 4.5t-8 9.5q-2 3 -7.5 16t-9.5 21h103q5 0 8.5 1t5.5 1l12 6q1 0 3 1q4 2 8 2q5 0 9 -2q2 -1 3 -1l12 -5q2 -1 5.5 -2t8.5 -1h102q-3 -8 -8.5 -21
t-7.5 -16q-2 -5 -8.5 -9.5t-19.5 -4.5h-25q-7 0 -8 -2q-1 -1 -1 -4v-1l1 -1h24q-5 -10 -8.5 -19t-5.5 -11q-2 -6 -9 -9l-51 -21l-4 -2q-2 -1 -9 -1z" />
    <glyph glyph-name="Igrave" unicode="&#xcc;" horiz-adv-x="393" 
d="M249 714h-54l-38 82h43q2 0 14.5 -2t20.5 -20l20 -52q1 -2 1 -4q0 -4 -7 -4zM266 663q0 9 -6 15t-15 6h-49v-663q0 -9 6.5 -15t14.5 -6h49v663z" />
    <glyph glyph-name="Iacute" unicode="&#xcd;" horiz-adv-x="377" 
d="M271 796q8 0 8 -4q0 -2 -1 -4l-20 -52q-8 -18 -20.5 -20t-14.5 -2h-43l38 82h53v0zM250 663q0 9 -6.5 15t-14.5 6h-49v-663q0 -9 6 -15t15 -6h49v663v0z" />
    <glyph glyph-name="Icircumflex" unicode="&#xce;" horiz-adv-x="385" 
d="M302 714h-28q-2 0 -13.5 2t-23.5 20l-16 22l-15 -22q-12 -18 -23.5 -20t-13.5 -2h-29l57 82h49zM257 0h-48q-9 0 -15.5 6t-6.5 15v663h49q9 0 15 -6t6 -15v-663z" />
    <glyph glyph-name="Idieresis" unicode="&#xcf;" 
d="M222 269q-7 0 -9 1l-4 2l-50 21q-5 2 -6.5 4.5t-3.5 4.5q-2 3 -6 13t-7 17h25v2q0 3 -1 4q-2 2 -8 2h-26q-13 0 -19 4.5t-8 9.5q-2 3 -7.5 16t-9.5 21h103q5 0 8.5 1t5.5 1l12 6q1 0 3 1q4 2 8 2q5 0 9 -2q2 -1 3 -1l12 -5q2 -1 5.5 -2t8.5 -1h102q-3 -8 -8.5 -21
t-7.5 -16q-2 -5 -8.5 -9.5t-19.5 -4.5h-25q-7 0 -8 -2q-1 -1 -1 -4v-1l1 -1h24q-5 -10 -8.5 -19t-5.5 -11q-2 -6 -9 -9l-51 -21l-4 -2q-2 -1 -9 -1z" />
    <glyph glyph-name="Eth" unicode="&#xd0;" 
d="M222 269q-7 0 -9 1l-4 2l-50 21q-5 2 -6.5 4.5t-3.5 4.5q-2 3 -6 13t-7 17h25v2q0 3 -1 4q-2 2 -8 2h-26q-13 0 -19 4.5t-8 9.5q-2 3 -7.5 16t-9.5 21h103q5 0 8.5 1t5.5 1l12 6q1 0 3 1q4 2 8 2q5 0 9 -2q2 -1 3 -1l12 -5q2 -1 5.5 -2t8.5 -1h102q-3 -8 -8.5 -21
t-7.5 -16q-2 -5 -8.5 -9.5t-19.5 -4.5h-25q-7 0 -8 -2q-1 -1 -1 -4v-1l1 -1h24q-5 -10 -8.5 -19t-5.5 -11q-2 -6 -9 -9l-51 -21l-4 -2q-2 -1 -9 -1z" />
    <glyph glyph-name="Ntilde" unicode="&#xd1;" horiz-adv-x="462" 
d="M168 712h-29q-4 35 8 48t28 15q18 2 43 -7q24 -10 36.5 -9.5t12.5 20.5q0 2 1 5q2 5 10 5h27q1 -8 0 -23t-8 -28.5t-22.5 -19.5t-43.5 6q-28 11 -40 13t-14 -18q0 -4 -4 -6q-2 -1 -5 -1zM266 684v-394l-74 356q-3 15 -11.5 26.5t-38.5 11.5h-32v-684h70v382l75 -338
q1 -5 3.5 -12.5t7.5 -14.5t14 -12t23 -5h32v684h-69z" />
    <glyph glyph-name="Ograve" unicode="&#xd2;" horiz-adv-x="472" 
d="M251 688h-54q-36 0 -61.5 -25.5t-25.5 -61.5v-520q0 -36 25.5 -61t61.5 -25h54q17 1 32.5 8t27 18.5t18 26.5t6.5 33v520q0 35 -25 60t-59 27zM265 94q0 -16 -11 -27t-27 -11h-10q-16 1 -26.5 11.5t-10.5 26.5v495q0 16 10.5 26.5t25.5 11.5h11q16 0 27 -11t11 -27v-495z
M190 714l-38 82h42h5.5t10 -2t11 -6.5t8.5 -13.5l21 -53v-4q-2 -3 -7 -3h-53z" />
    <glyph glyph-name="Oacute" unicode="&#xd3;" horiz-adv-x="472" 
d="M251 688h-54q-36 0 -61.5 -25.5t-25.5 -61.5v-520q0 -36 25.5 -61t61.5 -25h54q17 1 32.5 8t27 18.5t18 26.5t6.5 33v520q0 35 -25 60t-59 27zM227 56h-10q-16 1 -26.5 11.5t-10.5 26.5v495q0 16 10.5 26.5t25.5 11.5h11q16 0 27 -11t11 -27v-495q0 -16 -11 -27t-27 -11z
M294 788l-21 -52q-7 -18 -20 -20t-15 -2h-42l37 82h54q5 0 7 -4v-4z" />
    <glyph glyph-name="Ocircumflex" unicode="&#xd4;" horiz-adv-x="472" 
d="M251 688h-54q-36 0 -61.5 -25.5t-25.5 -61.5v-520q0 -18 7 -33.5t18.5 -27t27.5 -18.5t34 -7h54q17 1 32.5 8t27 18.5t18 26.5t6.5 33v520q0 18 -6.5 33.5t-18 27.5t-27 19t-32.5 7zM265 94q0 -16 -11 -26.5t-27 -10.5h-10q-16 0 -26.5 10.5t-10.5 26.5v496
q0 15 10.5 25.5t25.5 11.5h11q16 0 27 -11t11 -26v-496zM169 714h-28l57 82h49l56 -82h-28q-2 0 -13.5 2t-24.5 20l-15 22l-15 -22q-12 -18 -24 -20t-14 -2z" />
    <glyph glyph-name="Otilde" unicode="&#xd5;" 
d="M222 269q-7 0 -9 1l-4 2l-50 21q-5 2 -6.5 4.5t-3.5 4.5q-2 3 -6 13t-7 17h25v2q0 3 -1 4q-2 2 -8 2h-26q-13 0 -19 4.5t-8 9.5q-2 3 -7.5 16t-9.5 21h103q5 0 8.5 1t5.5 1l12 6q1 0 3 1q4 2 8 2q5 0 9 -2q2 -1 3 -1l12 -5q2 -1 5.5 -2t8.5 -1h102q-3 -8 -8.5 -21
t-7.5 -16q-2 -5 -8.5 -9.5t-19.5 -4.5h-25q-7 0 -8 -2q-1 -1 -1 -4v-1l1 -1h24q-5 -10 -8.5 -19t-5.5 -11q-2 -6 -9 -9l-51 -21l-4 -2q-2 -1 -9 -1z" />
    <glyph glyph-name="Odieresis" unicode="&#xd6;" 
d="M222 269q-7 0 -9 1l-4 2l-50 21q-5 2 -6.5 4.5t-3.5 4.5q-2 3 -6 13t-7 17h25v2q0 3 -1 4q-2 2 -8 2h-26q-13 0 -19 4.5t-8 9.5q-2 3 -7.5 16t-9.5 21h103q5 0 8.5 1t5.5 1l12 6q1 0 3 1q4 2 8 2q5 0 9 -2q2 -1 3 -1l12 -5q2 -1 5.5 -2t8.5 -1h102q-3 -8 -8.5 -21
t-7.5 -16q-2 -5 -8.5 -9.5t-19.5 -4.5h-25q-7 0 -8 -2q-1 -1 -1 -4v-1l1 -1h24q-5 -10 -8.5 -19t-5.5 -11q-2 -6 -9 -9l-51 -21l-4 -2q-2 -1 -9 -1z" />
    <glyph glyph-name="multiply" unicode="&#xd7;" 
d="M222 269q-7 0 -9 1l-4 2l-50 21q-5 2 -6.5 4.5t-3.5 4.5q-2 3 -6 13t-7 17h25v2q0 3 -1 4q-2 2 -8 2h-26q-13 0 -19 4.5t-8 9.5q-2 3 -7.5 16t-9.5 21h103q5 0 8.5 1t5.5 1l12 6q1 0 3 1q4 2 8 2q5 0 9 -2q2 -1 3 -1l12 -5q2 -1 5.5 -2t8.5 -1h102q-3 -8 -8.5 -21
t-7.5 -16q-2 -5 -8.5 -9.5t-19.5 -4.5h-25q-7 0 -8 -2q-1 -1 -1 -4v-1l1 -1h24q-5 -10 -8.5 -19t-5.5 -11q-2 -6 -9 -9l-51 -21l-4 -2q-2 -1 -9 -1z" />
    <glyph glyph-name="Oslash" unicode="&#xd8;" 
d="M222 269q-7 0 -9 1l-4 2l-50 21q-5 2 -6.5 4.5t-3.5 4.5q-2 3 -6 13t-7 17h25v2q0 3 -1 4q-2 2 -8 2h-26q-13 0 -19 4.5t-8 9.5q-2 3 -7.5 16t-9.5 21h103q5 0 8.5 1t5.5 1l12 6q1 0 3 1q4 2 8 2q5 0 9 -2q2 -1 3 -1l12 -5q2 -1 5.5 -2t8.5 -1h102q-3 -8 -8.5 -21
t-7.5 -16q-2 -5 -8.5 -9.5t-19.5 -4.5h-25q-7 0 -8 -2q-1 -1 -1 -4v-1l1 -1h24q-5 -10 -8.5 -19t-5.5 -11q-2 -6 -9 -9l-51 -21l-4 -2q-2 -1 -9 -1z" />
    <glyph glyph-name="Ugrave" unicode="&#xd9;" horiz-adv-x="462" 
d="M335 684v-603q-1 -35 -25 -59.5t-59 -25.5v-1h-54q-18 0 -34 7t-27.5 18.5t-18.5 27t-7 33.5v584q0 8 6.5 13.5t14.5 5.5h49v-590q0 -15 10.5 -26t25.5 -11h11q16 0 27 11t11 26v590h70zM254 718q-2 -4 -7 -4h-54l-37 82h42q2 0 15 -2t20 -20l21 -52v-4z" />
    <glyph glyph-name="Uacute" unicode="&#xda;" horiz-adv-x="462" 
d="M241 714h-43l38 82h54q7 0 7 -4q0 -2 -1 -4l-20 -52q-8 -18 -20.5 -20t-14.5 -2zM265 684v-590q0 -16 -11 -26.5t-27 -10.5h-11q-15 0 -25.5 11t-10.5 26v590h-49q-8 0 -14.5 -5.5t-6.5 -13.5v-584q0 -18 7 -33.5t18.5 -27t27.5 -18.5t34 -7h54q35 2 59 26.5t25 59.5v603
h-70z" />
    <glyph glyph-name="Ucircumflex" unicode="&#xdb;" horiz-adv-x="472" 
d="M169 714h-28l57 82h49l56 -82h-28q-2 0 -13.5 2t-24.5 20l-15 22l-15 -22q-12 -18 -24 -20t-14 -2zM265 684v-590q0 -16 -11 -26.5t-27 -10.5h-11q-15 0 -25.5 11t-10.5 26v590h-49q-8 0 -14.5 -5.5t-6.5 -13.5v-584q0 -18 7 -33.5t18.5 -27t27.5 -18.5t34 -7h54
q35 2 59 26.5t25 59.5v603h-70z" />
    <glyph glyph-name="Udieresis" unicode="&#xdc;" 
d="M222 269q-7 0 -9 1l-4 2l-50 21q-5 2 -6.5 4.5t-3.5 4.5q-2 3 -6 13t-7 17h25v2q0 3 -1 4q-2 2 -8 2h-26q-13 0 -19 4.5t-8 9.5q-2 3 -7.5 16t-9.5 21h103q5 0 8.5 1t5.5 1l12 6q1 0 3 1q4 2 8 2q5 0 9 -2q2 -1 3 -1l12 -5q2 -1 5.5 -2t8.5 -1h102q-3 -8 -8.5 -21
t-7.5 -16q-2 -5 -8.5 -9.5t-19.5 -4.5h-25q-7 0 -8 -2q-1 -1 -1 -4v-1l1 -1h24q-5 -10 -8.5 -19t-5.5 -11q-2 -6 -9 -9l-51 -21l-4 -2q-2 -1 -9 -1z" />
    <glyph glyph-name="Yacute" unicode="&#xdd;" 
d="M222 269q-7 0 -9 1l-4 2l-50 21q-5 2 -6.5 4.5t-3.5 4.5q-2 3 -6 13t-7 17h25v2q0 3 -1 4q-2 2 -8 2h-26q-13 0 -19 4.5t-8 9.5q-2 3 -7.5 16t-9.5 21h103q5 0 8.5 1t5.5 1l12 6q1 0 3 1q4 2 8 2q5 0 9 -2q2 -1 3 -1l12 -5q2 -1 5.5 -2t8.5 -1h102q-3 -8 -8.5 -21
t-7.5 -16q-2 -5 -8.5 -9.5t-19.5 -4.5h-25q-7 0 -8 -2q-1 -1 -1 -4v-1l1 -1h24q-5 -10 -8.5 -19t-5.5 -11q-2 -6 -9 -9l-51 -21l-4 -2q-2 -1 -9 -1z" />
    <glyph glyph-name="Thorn" unicode="&#xde;" 
d="M222 269q-7 0 -9 1l-4 2l-50 21q-5 2 -6.5 4.5t-3.5 4.5q-2 3 -6 13t-7 17h25v2q0 3 -1 4q-2 2 -8 2h-26q-13 0 -19 4.5t-8 9.5q-2 3 -7.5 16t-9.5 21h103q5 0 8.5 1t5.5 1l12 6q1 0 3 1q4 2 8 2q5 0 9 -2q2 -1 3 -1l12 -5q2 -1 5.5 -2t8.5 -1h102q-3 -8 -8.5 -21
t-7.5 -16q-2 -5 -8.5 -9.5t-19.5 -4.5h-25q-7 0 -8 -2q-1 -1 -1 -4v-1l1 -1h24q-5 -10 -8.5 -19t-5.5 -11q-2 -6 -9 -9l-51 -21l-4 -2q-2 -1 -9 -1z" />
    <glyph glyph-name="germandbls" unicode="&#xdf;" 
d="M222 269q-7 0 -9 1l-4 2l-50 21q-5 2 -6.5 4.5t-3.5 4.5q-2 3 -6 13t-7 17h25v2q0 3 -1 4q-2 2 -8 2h-26q-13 0 -19 4.5t-8 9.5q-2 3 -7.5 16t-9.5 21h103q5 0 8.5 1t5.5 1l12 6q1 0 3 1q4 2 8 2q5 0 9 -2q2 -1 3 -1l12 -5q2 -1 5.5 -2t8.5 -1h102q-3 -8 -8.5 -21
t-7.5 -16q-2 -5 -8.5 -9.5t-19.5 -4.5h-25q-7 0 -8 -2q-1 -1 -1 -4v-1l1 -1h24q-5 -10 -8.5 -19t-5.5 -11q-2 -6 -9 -9l-51 -21l-4 -2q-2 -1 -9 -1z" />
    <glyph glyph-name="agrave" unicode="&#xe0;" horiz-adv-x="480" 
d="M361 0h-77l-62 472l-61 -472h-77l103 684h38q23 0 29.5 -11.5t8.5 -25.5zM244 722q1 -2 1 -4q0 -4 -8 -4h-52l-38 82h43h5t9.5 -2t11 -6.5t8.5 -13.5l20 -52v0z" />
    <glyph glyph-name="aacute" unicode="&#xe1;" horiz-adv-x="480" 
d="M238 715h-43l38 82h52q8 0 8 -4q0 -2 -1 -4l-20 -53q-7 -17 -19.5 -19t-14.5 -2zM263 648q-2 14 -8.5 25.5t-29.5 11.5h-38l-103 -685h77l61 472l62 -472h77z" />
    <glyph glyph-name="acircumflex" unicode="&#xe2;" horiz-adv-x="480" 
d="M361 0h-77l-62 471l-61 -471h-77l103 684h38q23 0 29.5 -11.5t8.5 -25.5zM303 714h-28q-2 0 -13.5 2t-24.5 20l-15 22l-15 -22q-12 -18 -24 -20t-14 -2h-28l57 82h49z" />
    <glyph glyph-name="atilde" unicode="&#xe3;" horiz-adv-x="480" 
d="M169 715h-29q-4 34 8 47t28 15q18 2 43 -6q24 -11 36 -10t13 20q0 3 1 6q2 5 10 4h27q1 -8 0 -23t-8 -28.5t-22.5 -19.5t-43.5 6t-40 14t-14 -18q0 -4 -4 -6q-2 -1 -5 -1zM263 648q-2 14 -8.5 25.5t-29.5 11.5h-38l-103 -685h77l61 472l62 -472h77z" />
    <glyph glyph-name="adieresis" unicode="&#xe4;" 
d="M222 269q-7 0 -9 1l-4 2l-50 21q-5 2 -6.5 4.5t-3.5 4.5q-2 3 -6 13t-7 17h25v2q0 3 -1 4q-2 2 -8 2h-26q-13 0 -19 4.5t-8 9.5q-2 3 -7.5 16t-9.5 21h103q5 0 8.5 1t5.5 1l12 6q1 0 3 1q4 2 8 2q5 0 9 -2q2 -1 3 -1l12 -5q2 -1 5.5 -2t8.5 -1h102q-3 -8 -8.5 -21
t-7.5 -16q-2 -5 -8.5 -9.5t-19.5 -4.5h-25q-7 0 -8 -2q-1 -1 -1 -4v-1l1 -1h24q-5 -10 -8.5 -19t-5.5 -11q-2 -6 -9 -9l-51 -21l-4 -2q-2 -1 -9 -1z" />
    <glyph glyph-name="aring" unicode="&#xe5;" 
d="M222 269q-7 0 -9 1l-4 2l-50 21q-5 2 -6.5 4.5t-3.5 4.5q-2 3 -6 13t-7 17h25v2q0 3 -1 4q-2 2 -8 2h-26q-13 0 -19 4.5t-8 9.5q-2 3 -7.5 16t-9.5 21h103q5 0 8.5 1t5.5 1l12 6q1 0 3 1q4 2 8 2q5 0 9 -2q2 -1 3 -1l12 -5q2 -1 5.5 -2t8.5 -1h102q-3 -8 -8.5 -21
t-7.5 -16q-2 -5 -8.5 -9.5t-19.5 -4.5h-25q-7 0 -8 -2q-1 -1 -1 -4v-1l1 -1h24q-5 -10 -8.5 -19t-5.5 -11q-2 -6 -9 -9l-51 -21l-4 -2q-2 -1 -9 -1z" />
    <glyph glyph-name="ae" unicode="&#xe6;" 
d="M222 269q-7 0 -9 1l-4 2l-50 21q-5 2 -6.5 4.5t-3.5 4.5q-2 3 -6 13t-7 17h25v2q0 3 -1 4q-2 2 -8 2h-26q-13 0 -19 4.5t-8 9.5q-2 3 -7.5 16t-9.5 21h103q5 0 8.5 1t5.5 1l12 6q1 0 3 1q4 2 8 2q5 0 9 -2q2 -1 3 -1l12 -5q2 -1 5.5 -2t8.5 -1h102q-3 -8 -8.5 -21
t-7.5 -16q-2 -5 -8.5 -9.5t-19.5 -4.5h-25q-7 0 -8 -2q-1 -1 -1 -4v-1l1 -1h24q-5 -10 -8.5 -19t-5.5 -11q-2 -6 -9 -9l-51 -21l-4 -2q-2 -1 -9 -1z" />
    <glyph glyph-name="ccedilla" unicode="&#xe7;" horiz-adv-x="459" 
d="M279 223q4 2 20.5 9.5t30.5 13.5v-164q0 -18 -6.5 -33.5t-18 -27t-27 -18.5t-32.5 -8h-8v-10q38 -10 38 -49q-1 -18 -10 -30q-8 -11 -23 -19t-44 -5l2 8q1 8 7 12q3 2 5 2q8 1 16.5 7.5t7.5 20.5q-1 12 -9 20t-19 8h-5v35h-2q-36 0 -61.5 25.5t-25.5 61.5v259v1v259
q0 36 25.5 61.5t61.5 25.5h44q34 -2 59 -27t25 -60v-103q0 -17 -6.5 -25.5t-13.5 -12.5q-4 -2 -20.5 -9.5t-30.5 -13.5v153q1 15 -10 26t-27 11q-15 0 -26 -11t-11 -26v-248v-1v-248q0 -15 11 -26t26 -11q16 0 27 11t10 26v92q0 17 6.5 25.5t13.5 12.5z" />
    <glyph glyph-name="egrave" unicode="&#xe8;" horiz-adv-x="455" 
d="M274 722q1 -2 1 -4q0 -4 -7 -4h-55l-38 82h43q2 0 14.5 -2t19.5 -20l22 -52v0zM203 70h147q-6 -14 -13.5 -30t-9.5 -21q-3 -7 -11.5 -13t-25.5 -6h-157v664q0 9 6.5 14.5t14.5 5.5h183q-6 -13 -13.5 -29.5t-9.5 -20.5q-3 -7 -11.5 -13.5t-25.5 -6.5h-57q-7 0 -12 -4.5
t-5 -11.5v-204h106q-6 -14 -13.5 -30.5t-9.5 -20.5q-3 -7 -11.5 -13.5t-25.5 -5.5h-29q-7 0 -12 -5t-5 -12v-237z" />
    <glyph glyph-name="eacute" unicode="&#xe9;" horiz-adv-x="453" 
d="M201 307q0 8 5 12.5t12 4.5h29q17 0 25.5 6t11.5 13q2 5 10 21t13 30h-106v204q0 7 5 12t12 5h57q17 0 25.5 6t11.5 13q2 5 9.5 21t13.5 30h-183q-8 0 -14.5 -6t-6.5 -14v-665h157q17 0 25.5 6.5t11.5 12.5q2 5 10 21.5t13 29.5h-147v237zM314 789l-22 -52
q-8 -18 -20 -20t-14 -2h-43l37 82h56q7 0 7 -4q0 -2 -1 -4z" />
    <glyph glyph-name="ecircumflex" unicode="&#xea;" horiz-adv-x="452" 
d="M320 714h-28q-2 0 -14 2.5t-24 19.5l-15 22l-15 -22q-13 -17 -24.5 -19.5t-13.5 -2.5h-28l56 82h49zM200 70h147q-5 -14 -13 -30t-10 -21q-3 -7 -11.5 -13t-25.5 -6h-157v664q0 9 6.5 14.5t14.5 5.5h183q-6 -13 -13.5 -29.5t-9.5 -20.5q-3 -7 -11.5 -13.5t-25.5 -6.5h-57
q-7 0 -12 -4.5t-5 -11.5v-204h106q-5 -14 -13 -30.5t-10 -20.5q-3 -7 -11.5 -13.5t-25.5 -5.5h-29q-7 0 -12 -5t-5 -12v-237z" />
    <glyph glyph-name="edieresis" unicode="&#xeb;" 
d="M222 269q-7 0 -9 1l-4 2l-50 21q-5 2 -6.5 4.5t-3.5 4.5q-2 3 -6 13t-7 17h25v2q0 3 -1 4q-2 2 -8 2h-26q-13 0 -19 4.5t-8 9.5q-2 3 -7.5 16t-9.5 21h103q5 0 8.5 1t5.5 1l12 6q1 0 3 1q4 2 8 2q5 0 9 -2q2 -1 3 -1l12 -5q2 -1 5.5 -2t8.5 -1h102q-3 -8 -8.5 -21
t-7.5 -16q-2 -5 -8.5 -9.5t-19.5 -4.5h-25q-7 0 -8 -2q-1 -1 -1 -4v-1l1 -1h24q-5 -10 -8.5 -19t-5.5 -11q-2 -6 -9 -9l-51 -21l-4 -2q-2 -1 -9 -1z" />
    <glyph glyph-name="igrave" unicode="&#xec;" horiz-adv-x="393" 
d="M249 714h-54l-38 82h43q2 0 14.5 -2t20.5 -20l20 -52q1 -2 1 -4q0 -4 -7 -4zM266 663q0 9 -6 15t-15 6h-49v-663q0 -9 6.5 -15t14.5 -6h49v663z" />
    <glyph glyph-name="iacute" unicode="&#xed;" horiz-adv-x="377" 
d="M271 796q8 0 8 -4q0 -2 -1 -4l-20 -52q-8 -18 -20.5 -20t-14.5 -2h-43l38 82h53v0zM250 663q0 9 -6.5 15t-14.5 6h-49v-663q0 -9 6 -15t15 -6h49v663v0z" />
    <glyph glyph-name="icircumflex" unicode="&#xee;" horiz-adv-x="385" 
d="M302 714h-28q-2 0 -13.5 2t-23.5 20l-16 22l-15 -22q-12 -18 -23.5 -20t-13.5 -2h-29l57 82h49zM257 0h-48q-9 0 -15.5 6t-6.5 15v663h49q9 0 15 -6t6 -15v-663z" />
    <glyph glyph-name="idieresis" unicode="&#xef;" 
d="M222 269q-7 0 -9 1l-4 2l-50 21q-5 2 -6.5 4.5t-3.5 4.5q-2 3 -6 13t-7 17h25v2q0 3 -1 4q-2 2 -8 2h-26q-13 0 -19 4.5t-8 9.5q-2 3 -7.5 16t-9.5 21h103q5 0 8.5 1t5.5 1l12 6q1 0 3 1q4 2 8 2q5 0 9 -2q2 -1 3 -1l12 -5q2 -1 5.5 -2t8.5 -1h102q-3 -8 -8.5 -21
t-7.5 -16q-2 -5 -8.5 -9.5t-19.5 -4.5h-25q-7 0 -8 -2q-1 -1 -1 -4v-1l1 -1h24q-5 -10 -8.5 -19t-5.5 -11q-2 -6 -9 -9l-51 -21l-4 -2q-2 -1 -9 -1z" />
    <glyph glyph-name="eth" unicode="&#xf0;" 
d="M222 269q-7 0 -9 1l-4 2l-50 21q-5 2 -6.5 4.5t-3.5 4.5q-2 3 -6 13t-7 17h25v2q0 3 -1 4q-2 2 -8 2h-26q-13 0 -19 4.5t-8 9.5q-2 3 -7.5 16t-9.5 21h103q5 0 8.5 1t5.5 1l12 6q1 0 3 1q4 2 8 2q5 0 9 -2q2 -1 3 -1l12 -5q2 -1 5.5 -2t8.5 -1h102q-3 -8 -8.5 -21
t-7.5 -16q-2 -5 -8.5 -9.5t-19.5 -4.5h-25q-7 0 -8 -2q-1 -1 -1 -4v-1l1 -1h24q-5 -10 -8.5 -19t-5.5 -11q-2 -6 -9 -9l-51 -21l-4 -2q-2 -1 -9 -1z" />
    <glyph glyph-name="ntilde" unicode="&#xf1;" horiz-adv-x="462" 
d="M168 712h-29q-4 35 8 48t28 15q18 2 43 -7q24 -10 36.5 -9.5t12.5 20.5q0 2 1 5q2 5 10 5h27q1 -8 0 -23t-8 -28.5t-22.5 -19.5t-43.5 6q-28 11 -40 13t-14 -18q0 -4 -4 -6q-2 -1 -5 -1zM266 684v-394l-74 356q-3 15 -11.5 26.5t-38.5 11.5h-32v-684h70v382l75 -338
q1 -5 3.5 -12.5t7.5 -14.5t14 -12t23 -5h32v684h-69z" />
    <glyph glyph-name="ograve" unicode="&#xf2;" horiz-adv-x="472" 
d="M251 688h-54q-36 0 -61.5 -25.5t-25.5 -61.5v-520q0 -36 25.5 -61t61.5 -25h54q17 1 32.5 8t27 18.5t18 26.5t6.5 33v520q0 35 -25 60t-59 27zM265 94q0 -16 -11 -27t-27 -11h-10q-16 1 -26.5 11.5t-10.5 26.5v495q0 16 10.5 26.5t25.5 11.5h11q16 0 27 -11t11 -27v-495z
M190 714l-38 82h42h5.5t10 -2t11 -6.5t8.5 -13.5l21 -53v-4q-2 -3 -7 -3h-53z" />
    <glyph glyph-name="oacute" unicode="&#xf3;" horiz-adv-x="472" 
d="M251 688h-54q-36 0 -61.5 -25.5t-25.5 -61.5v-520q0 -36 25.5 -61t61.5 -25h54q17 1 32.5 8t27 18.5t18 26.5t6.5 33v520q0 35 -25 60t-59 27zM227 56h-10q-16 1 -26.5 11.5t-10.5 26.5v495q0 16 10.5 26.5t25.5 11.5h11q16 0 27 -11t11 -27v-495q0 -16 -11 -27t-27 -11z
M294 788l-21 -52q-7 -18 -20 -20t-15 -2h-42l37 82h54q5 0 7 -4v-4z" />
    <glyph glyph-name="ocircumflex" unicode="&#xf4;" horiz-adv-x="472" 
d="M251 688h-54q-36 0 -61.5 -25.5t-25.5 -61.5v-520q0 -18 7 -33.5t18.5 -27t27.5 -18.5t34 -7h54q17 1 32.5 8t27 18.5t18 26.5t6.5 33v520q0 18 -6.5 33.5t-18 27.5t-27 19t-32.5 7zM265 94q0 -16 -11 -26.5t-27 -10.5h-10q-16 0 -26.5 10.5t-10.5 26.5v496
q0 15 10.5 25.5t25.5 11.5h11q16 0 27 -11t11 -26v-496zM169 714h-28l57 82h49l56 -82h-28q-2 0 -13.5 2t-24.5 20l-15 22l-15 -22q-12 -18 -24 -20t-14 -2z" />
    <glyph glyph-name="otilde" unicode="&#xf5;" horiz-adv-x="471" 
d="M250 688h-54q-36 0 -61.5 -25.5t-25.5 -61.5v-520q0 -36 25.5 -61t61.5 -25h54q17 1 32.5 8t27 18.5t18 26.5t6.5 33v520q0 35 -25 60t-59 27zM264 94q0 -16 -11 -27t-27 -11h-10q-16 1 -26.5 11.5t-10.5 26.5v495q0 16 10.5 26.5t25.5 11.5h11q16 0 27 -11t11 -27v-495z
M138 714q-4 34 8 47t28 15q18 2 43 -6q24 -11 36.5 -10t12.5 20q0 3 1 6q2 5 10 5h27q1 -8 0 -23.5t-8 -28.5t-22.5 -19t-43.5 6q-27 11 -39.5 13t-14.5 -18q0 -4 -4 -6q-2 -1 -5 -1h-29z" />
    <glyph glyph-name="odieresis" unicode="&#xf6;" 
d="M222 269q-7 0 -9 1l-4 2l-50 21q-5 2 -6.5 4.5t-3.5 4.5q-2 3 -6 13t-7 17h25v2q0 3 -1 4q-2 2 -8 2h-26q-13 0 -19 4.5t-8 9.5q-2 3 -7.5 16t-9.5 21h103q5 0 8.5 1t5.5 1l12 6q1 0 3 1q4 2 8 2q5 0 9 -2q2 -1 3 -1l12 -5q2 -1 5.5 -2t8.5 -1h102q-3 -8 -8.5 -21
t-7.5 -16q-2 -5 -8.5 -9.5t-19.5 -4.5h-25q-7 0 -8 -2q-1 -1 -1 -4v-1l1 -1h24q-5 -10 -8.5 -19t-5.5 -11q-2 -6 -9 -9l-51 -21l-4 -2q-2 -1 -9 -1z" />
    <glyph glyph-name="divide" unicode="&#xf7;" 
d="M222 269q-7 0 -9 1l-4 2l-50 21q-5 2 -6.5 4.5t-3.5 4.5q-2 3 -6 13t-7 17h25v2q0 3 -1 4q-2 2 -8 2h-26q-13 0 -19 4.5t-8 9.5q-2 3 -7.5 16t-9.5 21h103q5 0 8.5 1t5.5 1l12 6q1 0 3 1q4 2 8 2q5 0 9 -2q2 -1 3 -1l12 -5q2 -1 5.5 -2t8.5 -1h102q-3 -8 -8.5 -21
t-7.5 -16q-2 -5 -8.5 -9.5t-19.5 -4.5h-25q-7 0 -8 -2q-1 -1 -1 -4v-1l1 -1h24q-5 -10 -8.5 -19t-5.5 -11q-2 -6 -9 -9l-51 -21l-4 -2q-2 -1 -9 -1z" />
    <glyph glyph-name="oslash" unicode="&#xf8;" 
d="M222 269q-7 0 -9 1l-4 2l-50 21q-5 2 -6.5 4.5t-3.5 4.5q-2 3 -6 13t-7 17h25v2q0 3 -1 4q-2 2 -8 2h-26q-13 0 -19 4.5t-8 9.5q-2 3 -7.5 16t-9.5 21h103q5 0 8.5 1t5.5 1l12 6q1 0 3 1q4 2 8 2q5 0 9 -2q2 -1 3 -1l12 -5q2 -1 5.5 -2t8.5 -1h102q-3 -8 -8.5 -21
t-7.5 -16q-2 -5 -8.5 -9.5t-19.5 -4.5h-25q-7 0 -8 -2q-1 -1 -1 -4v-1l1 -1h24q-5 -10 -8.5 -19t-5.5 -11q-2 -6 -9 -9l-51 -21l-4 -2q-2 -1 -9 -1z" />
    <glyph glyph-name="ugrave" unicode="&#xf9;" horiz-adv-x="462" 
d="M335 684v-603q-1 -35 -25 -59.5t-59 -25.5v-1h-54q-18 0 -34 7t-27.5 18.5t-18.5 27t-7 33.5v584q0 8 6.5 13.5t14.5 5.5h49v-590q0 -15 10.5 -26t25.5 -11h11q16 0 27 11t11 26v590h70zM254 718q-2 -4 -7 -4h-54l-37 82h42q2 0 15 -2t20 -20l21 -52v-4z" />
    <glyph glyph-name="uacute" unicode="&#xfa;" horiz-adv-x="462" 
d="M241 714h-43l38 82h54q7 0 7 -4q0 -2 -1 -4l-20 -52q-8 -18 -20.5 -20t-14.5 -2zM265 684v-590q0 -16 -11 -26.5t-27 -10.5h-11q-15 0 -25.5 11t-10.5 26v590h-49q-8 0 -14.5 -5.5t-6.5 -13.5v-584q0 -18 7 -33.5t18.5 -27t27.5 -18.5t34 -7h54q35 2 59 26.5t25 59.5v603
h-70z" />
    <glyph glyph-name="ucircumflex" unicode="&#xfb;" horiz-adv-x="472" 
d="M169 714h-28l57 82h49l56 -82h-28q-2 0 -13.5 2t-24.5 20l-15 22l-15 -22q-12 -18 -24 -20t-14 -2zM265 684v-590q0 -16 -11 -26.5t-27 -10.5h-11q-15 0 -25.5 11t-10.5 26v590h-49q-8 0 -14.5 -5.5t-6.5 -13.5v-584q0 -18 7 -33.5t18.5 -27t27.5 -18.5t34 -7h54
q35 2 59 26.5t25 59.5v603h-70z" />
    <glyph glyph-name="udieresis" unicode="&#xfc;" 
d="M222 269q-7 0 -9 1l-4 2l-50 21q-5 2 -6.5 4.5t-3.5 4.5q-2 3 -6 13t-7 17h25v2q0 3 -1 4q-2 2 -8 2h-26q-13 0 -19 4.5t-8 9.5q-2 3 -7.5 16t-9.5 21h103q5 0 8.5 1t5.5 1l12 6q1 0 3 1q4 2 8 2q5 0 9 -2q2 -1 3 -1l12 -5q2 -1 5.5 -2t8.5 -1h102q-3 -8 -8.5 -21
t-7.5 -16q-2 -5 -8.5 -9.5t-19.5 -4.5h-25q-7 0 -8 -2q-1 -1 -1 -4v-1l1 -1h24q-5 -10 -8.5 -19t-5.5 -11q-2 -6 -9 -9l-51 -21l-4 -2q-2 -1 -9 -1z" />
    <glyph glyph-name="yacute" unicode="&#xfd;" 
d="M222 269q-7 0 -9 1l-4 2l-50 21q-5 2 -6.5 4.5t-3.5 4.5q-2 3 -6 13t-7 17h25v2q0 3 -1 4q-2 2 -8 2h-26q-13 0 -19 4.5t-8 9.5q-2 3 -7.5 16t-9.5 21h103q5 0 8.5 1t5.5 1l12 6q1 0 3 1q4 2 8 2q5 0 9 -2q2 -1 3 -1l12 -5q2 -1 5.5 -2t8.5 -1h102q-3 -8 -8.5 -21
t-7.5 -16q-2 -5 -8.5 -9.5t-19.5 -4.5h-25q-7 0 -8 -2q-1 -1 -1 -4v-1l1 -1h24q-5 -10 -8.5 -19t-5.5 -11q-2 -6 -9 -9l-51 -21l-4 -2q-2 -1 -9 -1z" />
    <glyph glyph-name="thorn" unicode="&#xfe;" 
d="M222 269q-7 0 -9 1l-4 2l-50 21q-5 2 -6.5 4.5t-3.5 4.5q-2 3 -6 13t-7 17h25v2q0 3 -1 4q-2 2 -8 2h-26q-13 0 -19 4.5t-8 9.5q-2 3 -7.5 16t-9.5 21h103q5 0 8.5 1t5.5 1l12 6q1 0 3 1q4 2 8 2q5 0 9 -2q2 -1 3 -1l12 -5q2 -1 5.5 -2t8.5 -1h102q-3 -8 -8.5 -21
t-7.5 -16q-2 -5 -8.5 -9.5t-19.5 -4.5h-25q-7 0 -8 -2q-1 -1 -1 -4v-1l1 -1h24q-5 -10 -8.5 -19t-5.5 -11q-2 -6 -9 -9l-51 -21l-4 -2q-2 -1 -9 -1z" />
    <glyph glyph-name="ydieresis" unicode="&#xff;" 
d="M222 269q-7 0 -9 1l-4 2l-50 21q-5 2 -6.5 4.5t-3.5 4.5q-2 3 -6 13t-7 17h25v2q0 3 -1 4q-2 2 -8 2h-26q-13 0 -19 4.5t-8 9.5q-2 3 -7.5 16t-9.5 21h103q5 0 8.5 1t5.5 1l12 6q1 0 3 1q4 2 8 2q5 0 9 -2q2 -1 3 -1l12 -5q2 -1 5.5 -2t8.5 -1h102q-3 -8 -8.5 -21
t-7.5 -16q-2 -5 -8.5 -9.5t-19.5 -4.5h-25q-7 0 -8 -2q-1 -1 -1 -4v-1l1 -1h24q-5 -10 -8.5 -19t-5.5 -11q-2 -6 -9 -9l-51 -21l-4 -2q-2 -1 -9 -1z" />
    <glyph glyph-name="dotlessi" unicode="&#x131;" 
d="M222 269q-7 0 -9 1l-4 2l-50 21q-5 2 -6.5 4.5t-3.5 4.5q-2 3 -6 13t-7 17h25v2q0 3 -1 4q-2 2 -8 2h-26q-13 0 -19 4.5t-8 9.5q-2 3 -7.5 16t-9.5 21h103q5 0 8.5 1t5.5 1l12 6q1 0 3 1q4 2 8 2q5 0 9 -2q2 -1 3 -1l12 -5q2 -1 5.5 -2t8.5 -1h102q-3 -8 -8.5 -21
t-7.5 -16q-2 -5 -8.5 -9.5t-19.5 -4.5h-25q-7 0 -8 -2q-1 -1 -1 -4v-1l1 -1h24q-5 -10 -8.5 -19t-5.5 -11q-2 -6 -9 -9l-51 -21l-4 -2q-2 -1 -9 -1z" />
    <glyph glyph-name="Lslash" unicode="&#x141;" 
d="M222 269q-7 0 -9 1l-4 2l-50 21q-5 2 -6.5 4.5t-3.5 4.5q-2 3 -6 13t-7 17h25v2q0 3 -1 4q-2 2 -8 2h-26q-13 0 -19 4.5t-8 9.5q-2 3 -7.5 16t-9.5 21h103q5 0 8.5 1t5.5 1l12 6q1 0 3 1q4 2 8 2q5 0 9 -2q2 -1 3 -1l12 -5q2 -1 5.5 -2t8.5 -1h102q-3 -8 -8.5 -21
t-7.5 -16q-2 -5 -8.5 -9.5t-19.5 -4.5h-25q-7 0 -8 -2q-1 -1 -1 -4v-1l1 -1h24q-5 -10 -8.5 -19t-5.5 -11q-2 -6 -9 -9l-51 -21l-4 -2q-2 -1 -9 -1z" />
    <glyph glyph-name="lslash" unicode="&#x142;" 
d="M222 269q-7 0 -9 1l-4 2l-50 21q-5 2 -6.5 4.5t-3.5 4.5q-2 3 -6 13t-7 17h25v2q0 3 -1 4q-2 2 -8 2h-26q-13 0 -19 4.5t-8 9.5q-2 3 -7.5 16t-9.5 21h103q5 0 8.5 1t5.5 1l12 6q1 0 3 1q4 2 8 2q5 0 9 -2q2 -1 3 -1l12 -5q2 -1 5.5 -2t8.5 -1h102q-3 -8 -8.5 -21
t-7.5 -16q-2 -5 -8.5 -9.5t-19.5 -4.5h-25q-7 0 -8 -2q-1 -1 -1 -4v-1l1 -1h24q-5 -10 -8.5 -19t-5.5 -11q-2 -6 -9 -9l-51 -21l-4 -2q-2 -1 -9 -1z" />
    <glyph glyph-name="OE" unicode="&#x152;" 
d="M222 269q-7 0 -9 1l-4 2l-50 21q-5 2 -6.5 4.5t-3.5 4.5q-2 3 -6 13t-7 17h25v2q0 3 -1 4q-2 2 -8 2h-26q-13 0 -19 4.5t-8 9.5q-2 3 -7.5 16t-9.5 21h103q5 0 8.5 1t5.5 1l12 6q1 0 3 1q4 2 8 2q5 0 9 -2q2 -1 3 -1l12 -5q2 -1 5.5 -2t8.5 -1h102q-3 -8 -8.5 -21
t-7.5 -16q-2 -5 -8.5 -9.5t-19.5 -4.5h-25q-7 0 -8 -2q-1 -1 -1 -4v-1l1 -1h24q-5 -10 -8.5 -19t-5.5 -11q-2 -6 -9 -9l-51 -21l-4 -2q-2 -1 -9 -1z" />
    <glyph glyph-name="oe" unicode="&#x153;" 
d="M222 269q-7 0 -9 1l-4 2l-50 21q-5 2 -6.5 4.5t-3.5 4.5q-2 3 -6 13t-7 17h25v2q0 3 -1 4q-2 2 -8 2h-26q-13 0 -19 4.5t-8 9.5q-2 3 -7.5 16t-9.5 21h103q5 0 8.5 1t5.5 1l12 6q1 0 3 1q4 2 8 2q5 0 9 -2q2 -1 3 -1l12 -5q2 -1 5.5 -2t8.5 -1h102q-3 -8 -8.5 -21
t-7.5 -16q-2 -5 -8.5 -9.5t-19.5 -4.5h-25q-7 0 -8 -2q-1 -1 -1 -4v-1l1 -1h24q-5 -10 -8.5 -19t-5.5 -11q-2 -6 -9 -9l-51 -21l-4 -2q-2 -1 -9 -1z" />
    <glyph glyph-name="Scaron" unicode="&#x160;" 
d="M222 269q-7 0 -9 1l-4 2l-50 21q-5 2 -6.5 4.5t-3.5 4.5q-2 3 -6 13t-7 17h25v2q0 3 -1 4q-2 2 -8 2h-26q-13 0 -19 4.5t-8 9.5q-2 3 -7.5 16t-9.5 21h103q5 0 8.5 1t5.5 1l12 6q1 0 3 1q4 2 8 2q5 0 9 -2q2 -1 3 -1l12 -5q2 -1 5.5 -2t8.5 -1h102q-3 -8 -8.5 -21
t-7.5 -16q-2 -5 -8.5 -9.5t-19.5 -4.5h-25q-7 0 -8 -2q-1 -1 -1 -4v-1l1 -1h24q-5 -10 -8.5 -19t-5.5 -11q-2 -6 -9 -9l-51 -21l-4 -2q-2 -1 -9 -1z" />
    <glyph glyph-name="scaron" unicode="&#x161;" 
d="M222 269q-7 0 -9 1l-4 2l-50 21q-5 2 -6.5 4.5t-3.5 4.5q-2 3 -6 13t-7 17h25v2q0 3 -1 4q-2 2 -8 2h-26q-13 0 -19 4.5t-8 9.5q-2 3 -7.5 16t-9.5 21h103q5 0 8.5 1t5.5 1l12 6q1 0 3 1q4 2 8 2q5 0 9 -2q2 -1 3 -1l12 -5q2 -1 5.5 -2t8.5 -1h102q-3 -8 -8.5 -21
t-7.5 -16q-2 -5 -8.5 -9.5t-19.5 -4.5h-25q-7 0 -8 -2q-1 -1 -1 -4v-1l1 -1h24q-5 -10 -8.5 -19t-5.5 -11q-2 -6 -9 -9l-51 -21l-4 -2q-2 -1 -9 -1z" />
    <glyph glyph-name="Ydieresis" unicode="&#x178;" 
d="M222 269q-7 0 -9 1l-4 2l-50 21q-5 2 -6.5 4.5t-3.5 4.5q-2 3 -6 13t-7 17h25v2q0 3 -1 4q-2 2 -8 2h-26q-13 0 -19 4.5t-8 9.5q-2 3 -7.5 16t-9.5 21h103q5 0 8.5 1t5.5 1l12 6q1 0 3 1q4 2 8 2q5 0 9 -2q2 -1 3 -1l12 -5q2 -1 5.5 -2t8.5 -1h102q-3 -8 -8.5 -21
t-7.5 -16q-2 -5 -8.5 -9.5t-19.5 -4.5h-25q-7 0 -8 -2q-1 -1 -1 -4v-1l1 -1h24q-5 -10 -8.5 -19t-5.5 -11q-2 -6 -9 -9l-51 -21l-4 -2q-2 -1 -9 -1z" />
    <glyph glyph-name="Zcaron" unicode="&#x17d;" 
d="M222 269q-7 0 -9 1l-4 2l-50 21q-5 2 -6.5 4.5t-3.5 4.5q-2 3 -6 13t-7 17h25v2q0 3 -1 4q-2 2 -8 2h-26q-13 0 -19 4.5t-8 9.5q-2 3 -7.5 16t-9.5 21h103q5 0 8.5 1t5.5 1l12 6q1 0 3 1q4 2 8 2q5 0 9 -2q2 -1 3 -1l12 -5q2 -1 5.5 -2t8.5 -1h102q-3 -8 -8.5 -21
t-7.5 -16q-2 -5 -8.5 -9.5t-19.5 -4.5h-25q-7 0 -8 -2q-1 -1 -1 -4v-1l1 -1h24q-5 -10 -8.5 -19t-5.5 -11q-2 -6 -9 -9l-51 -21l-4 -2q-2 -1 -9 -1z" />
    <glyph glyph-name="zcaron" unicode="&#x17e;" 
d="M222 269q-7 0 -9 1l-4 2l-50 21q-5 2 -6.5 4.5t-3.5 4.5q-2 3 -6 13t-7 17h25v2q0 3 -1 4q-2 2 -8 2h-26q-13 0 -19 4.5t-8 9.5q-2 3 -7.5 16t-9.5 21h103q5 0 8.5 1t5.5 1l12 6q1 0 3 1q4 2 8 2q5 0 9 -2q2 -1 3 -1l12 -5q2 -1 5.5 -2t8.5 -1h102q-3 -8 -8.5 -21
t-7.5 -16q-2 -5 -8.5 -9.5t-19.5 -4.5h-25q-7 0 -8 -2q-1 -1 -1 -4v-1l1 -1h24q-5 -10 -8.5 -19t-5.5 -11q-2 -6 -9 -9l-51 -21l-4 -2q-2 -1 -9 -1z" />
    <glyph glyph-name="florin" unicode="&#x192;" 
d="M222 269q-7 0 -9 1l-4 2l-50 21q-5 2 -6.5 4.5t-3.5 4.5q-2 3 -6 13t-7 17h25v2q0 3 -1 4q-2 2 -8 2h-26q-13 0 -19 4.5t-8 9.5q-2 3 -7.5 16t-9.5 21h103q5 0 8.5 1t5.5 1l12 6q1 0 3 1q4 2 8 2q5 0 9 -2q2 -1 3 -1l12 -5q2 -1 5.5 -2t8.5 -1h102q-3 -8 -8.5 -21
t-7.5 -16q-2 -5 -8.5 -9.5t-19.5 -4.5h-25q-7 0 -8 -2q-1 -1 -1 -4v-1l1 -1h24q-5 -10 -8.5 -19t-5.5 -11q-2 -6 -9 -9l-51 -21l-4 -2q-2 -1 -9 -1z" />
    <glyph glyph-name="circumflex" unicode="&#x2c6;" horiz-adv-x="283" 
d="M303 830h-28q-2 0 -13.5 2t-24.5 20l-15 22l-15 -22q-12 -18 -24 -20t-14 -2h-28l57 82h49z" />
    <glyph glyph-name="caron" unicode="&#x2c7;" 
d="M222 269q-7 0 -9 1l-4 2l-50 21q-5 2 -6.5 4.5t-3.5 4.5q-2 3 -6 13t-7 17h25v2q0 3 -1 4q-2 2 -8 2h-26q-13 0 -19 4.5t-8 9.5q-2 3 -7.5 16t-9.5 21h103q5 0 8.5 1t5.5 1l12 6q1 0 3 1q4 2 8 2q5 0 9 -2q2 -1 3 -1l12 -5q2 -1 5.5 -2t8.5 -1h102q-3 -8 -8.5 -21
t-7.5 -16q-2 -5 -8.5 -9.5t-19.5 -4.5h-25q-7 0 -8 -2q-1 -1 -1 -4v-1l1 -1h24q-5 -10 -8.5 -19t-5.5 -11q-2 -6 -9 -9l-51 -21l-4 -2q-2 -1 -9 -1z" />
    <glyph glyph-name="breve" unicode="&#x2d8;" 
d="M222 269q-7 0 -9 1l-4 2l-50 21q-5 2 -6.5 4.5t-3.5 4.5q-2 3 -6 13t-7 17h25v2q0 3 -1 4q-2 2 -8 2h-26q-13 0 -19 4.5t-8 9.5q-2 3 -7.5 16t-9.5 21h103q5 0 8.5 1t5.5 1l12 6q1 0 3 1q4 2 8 2q5 0 9 -2q2 -1 3 -1l12 -5q2 -1 5.5 -2t8.5 -1h102q-3 -8 -8.5 -21
t-7.5 -16q-2 -5 -8.5 -9.5t-19.5 -4.5h-25q-7 0 -8 -2q-1 -1 -1 -4v-1l1 -1h24q-5 -10 -8.5 -19t-5.5 -11q-2 -6 -9 -9l-51 -21l-4 -2q-2 -1 -9 -1z" />
    <glyph glyph-name="dotaccent" unicode="&#x2d9;" 
d="M222 269q-7 0 -9 1l-4 2l-50 21q-5 2 -6.5 4.5t-3.5 4.5q-2 3 -6 13t-7 17h25v2q0 3 -1 4q-2 2 -8 2h-26q-13 0 -19 4.5t-8 9.5q-2 3 -7.5 16t-9.5 21h103q5 0 8.5 1t5.5 1l12 6q1 0 3 1q4 2 8 2q5 0 9 -2q2 -1 3 -1l12 -5q2 -1 5.5 -2t8.5 -1h102q-3 -8 -8.5 -21
t-7.5 -16q-2 -5 -8.5 -9.5t-19.5 -4.5h-25q-7 0 -8 -2q-1 -1 -1 -4v-1l1 -1h24q-5 -10 -8.5 -19t-5.5 -11q-2 -6 -9 -9l-51 -21l-4 -2q-2 -1 -9 -1z" />
    <glyph glyph-name="ring" unicode="&#x2da;" 
d="M222 269q-7 0 -9 1l-4 2l-50 21q-5 2 -6.5 4.5t-3.5 4.5q-2 3 -6 13t-7 17h25v2q0 3 -1 4q-2 2 -8 2h-26q-13 0 -19 4.5t-8 9.5q-2 3 -7.5 16t-9.5 21h103q5 0 8.5 1t5.5 1l12 6q1 0 3 1q4 2 8 2q5 0 9 -2q2 -1 3 -1l12 -5q2 -1 5.5 -2t8.5 -1h102q-3 -8 -8.5 -21
t-7.5 -16q-2 -5 -8.5 -9.5t-19.5 -4.5h-25q-7 0 -8 -2q-1 -1 -1 -4v-1l1 -1h24q-5 -10 -8.5 -19t-5.5 -11q-2 -6 -9 -9l-51 -21l-4 -2q-2 -1 -9 -1z" />
    <glyph glyph-name="ogonek" unicode="&#x2db;" 
d="M222 269q-7 0 -9 1l-4 2l-50 21q-5 2 -6.5 4.5t-3.5 4.5q-2 3 -6 13t-7 17h25v2q0 3 -1 4q-2 2 -8 2h-26q-13 0 -19 4.5t-8 9.5q-2 3 -7.5 16t-9.5 21h103q5 0 8.5 1t5.5 1l12 6q1 0 3 1q4 2 8 2q5 0 9 -2q2 -1 3 -1l12 -5q2 -1 5.5 -2t8.5 -1h102q-3 -8 -8.5 -21
t-7.5 -16q-2 -5 -8.5 -9.5t-19.5 -4.5h-25q-7 0 -8 -2q-1 -1 -1 -4v-1l1 -1h24q-5 -10 -8.5 -19t-5.5 -11q-2 -6 -9 -9l-51 -21l-4 -2q-2 -1 -9 -1z" />
    <glyph glyph-name="tilde" unicode="&#x2dc;" 
d="M222 269q-7 0 -9 1l-4 2l-50 21q-5 2 -6.5 4.5t-3.5 4.5q-2 3 -6 13t-7 17h25v2q0 3 -1 4q-2 2 -8 2h-26q-13 0 -19 4.5t-8 9.5q-2 3 -7.5 16t-9.5 21h103q5 0 8.5 1t5.5 1l12 6q1 0 3 1q4 2 8 2q5 0 9 -2q2 -1 3 -1l12 -5q2 -1 5.5 -2t8.5 -1h102q-3 -8 -8.5 -21
t-7.5 -16q-2 -5 -8.5 -9.5t-19.5 -4.5h-25q-7 0 -8 -2q-1 -1 -1 -4v-1l1 -1h24q-5 -10 -8.5 -19t-5.5 -11q-2 -6 -9 -9l-51 -21l-4 -2q-2 -1 -9 -1z" />
    <glyph glyph-name="hungarumlaut" unicode="&#x2dd;" 
d="M222 269q-7 0 -9 1l-4 2l-50 21q-5 2 -6.5 4.5t-3.5 4.5q-2 3 -6 13t-7 17h25v2q0 3 -1 4q-2 2 -8 2h-26q-13 0 -19 4.5t-8 9.5q-2 3 -7.5 16t-9.5 21h103q5 0 8.5 1t5.5 1l12 6q1 0 3 1q4 2 8 2q5 0 9 -2q2 -1 3 -1l12 -5q2 -1 5.5 -2t8.5 -1h102q-3 -8 -8.5 -21
t-7.5 -16q-2 -5 -8.5 -9.5t-19.5 -4.5h-25q-7 0 -8 -2q-1 -1 -1 -4v-1l1 -1h24q-5 -10 -8.5 -19t-5.5 -11q-2 -6 -9 -9l-51 -21l-4 -2q-2 -1 -9 -1z" />
    <glyph glyph-name="pi" unicode="&#x3c0;" 
d="M222 269q-7 0 -9 1l-4 2l-50 21q-5 2 -6.5 4.5t-3.5 4.5q-2 3 -6 13t-7 17h25v2q0 3 -1 4q-2 2 -8 2h-26q-13 0 -19 4.5t-8 9.5q-2 3 -7.5 16t-9.5 21h103q5 0 8.5 1t5.5 1l12 6q1 0 3 1q4 2 8 2q5 0 9 -2q2 -1 3 -1l12 -5q2 -1 5.5 -2t8.5 -1h102q-3 -8 -8.5 -21
t-7.5 -16q-2 -5 -8.5 -9.5t-19.5 -4.5h-25q-7 0 -8 -2q-1 -1 -1 -4v-1l1 -1h24q-5 -10 -8.5 -19t-5.5 -11q-2 -6 -9 -9l-51 -21l-4 -2q-2 -1 -9 -1z" />
    <glyph glyph-name="endash" unicode="&#x2013;" horiz-adv-x="417" 
d="M289 374v-49q0 -9 -6 -15t-15 -6h-113v48q0 9 6.5 15.5t14.5 6.5h113z" />
    <glyph glyph-name="emdash" unicode="&#x2014;" horiz-adv-x="455" 
d="M327 374v-49q0 -9 -6 -15t-15 -6h-189v48q0 9 6.5 15.5t14.5 6.5h189z" />
    <glyph glyph-name="quotesinglbase" unicode="&#x201a;" 
d="M222 269q-7 0 -9 1l-4 2l-50 21q-5 2 -6.5 4.5t-3.5 4.5q-2 3 -6 13t-7 17h25v2q0 3 -1 4q-2 2 -8 2h-26q-13 0 -19 4.5t-8 9.5q-2 3 -7.5 16t-9.5 21h103q5 0 8.5 1t5.5 1l12 6q1 0 3 1q4 2 8 2q5 0 9 -2q2 -1 3 -1l12 -5q2 -1 5.5 -2t8.5 -1h102q-3 -8 -8.5 -21
t-7.5 -16q-2 -5 -8.5 -9.5t-19.5 -4.5h-25q-7 0 -8 -2q-1 -1 -1 -4v-1l1 -1h24q-5 -10 -8.5 -19t-5.5 -11q-2 -6 -9 -9l-51 -21l-4 -2q-2 -1 -9 -1z" />
    <glyph glyph-name="quotedblbase" unicode="&#x201e;" 
d="M222 269q-7 0 -9 1l-4 2l-50 21q-5 2 -6.5 4.5t-3.5 4.5q-2 3 -6 13t-7 17h25v2q0 3 -1 4q-2 2 -8 2h-26q-13 0 -19 4.5t-8 9.5q-2 3 -7.5 16t-9.5 21h103q5 0 8.5 1t5.5 1l12 6q1 0 3 1q4 2 8 2q5 0 9 -2q2 -1 3 -1l12 -5q2 -1 5.5 -2t8.5 -1h102q-3 -8 -8.5 -21
t-7.5 -16q-2 -5 -8.5 -9.5t-19.5 -4.5h-25q-7 0 -8 -2q-1 -1 -1 -4v-1l1 -1h24q-5 -10 -8.5 -19t-5.5 -11q-2 -6 -9 -9l-51 -21l-4 -2q-2 -1 -9 -1z" />
    <glyph glyph-name="dagger" unicode="&#x2020;" 
d="M222 269q-7 0 -9 1l-4 2l-50 21q-5 2 -6.5 4.5t-3.5 4.5q-2 3 -6 13t-7 17h25v2q0 3 -1 4q-2 2 -8 2h-26q-13 0 -19 4.5t-8 9.5q-2 3 -7.5 16t-9.5 21h103q5 0 8.5 1t5.5 1l12 6q1 0 3 1q4 2 8 2q5 0 9 -2q2 -1 3 -1l12 -5q2 -1 5.5 -2t8.5 -1h102q-3 -8 -8.5 -21
t-7.5 -16q-2 -5 -8.5 -9.5t-19.5 -4.5h-25q-7 0 -8 -2q-1 -1 -1 -4v-1l1 -1h24q-5 -10 -8.5 -19t-5.5 -11q-2 -6 -9 -9l-51 -21l-4 -2q-2 -1 -9 -1z" />
    <glyph glyph-name="daggerdbl" unicode="&#x2021;" 
d="M222 269q-7 0 -9 1l-4 2l-50 21q-5 2 -6.5 4.5t-3.5 4.5q-2 3 -6 13t-7 17h25v2q0 3 -1 4q-2 2 -8 2h-26q-13 0 -19 4.5t-8 9.5q-2 3 -7.5 16t-9.5 21h103q5 0 8.5 1t5.5 1l12 6q1 0 3 1q4 2 8 2q5 0 9 -2q2 -1 3 -1l12 -5q2 -1 5.5 -2t8.5 -1h102q-3 -8 -8.5 -21
t-7.5 -16q-2 -5 -8.5 -9.5t-19.5 -4.5h-25q-7 0 -8 -2q-1 -1 -1 -4v-1l1 -1h24q-5 -10 -8.5 -19t-5.5 -11q-2 -6 -9 -9l-51 -21l-4 -2q-2 -1 -9 -1z" />
    <glyph glyph-name="bullet" unicode="&#x2022;" 
d="M222 269q-7 0 -9 1l-4 2l-50 21q-5 2 -6.5 4.5t-3.5 4.5q-2 3 -6 13t-7 17h25v2q0 3 -1 4q-2 2 -8 2h-26q-13 0 -19 4.5t-8 9.5q-2 3 -7.5 16t-9.5 21h103q5 0 8.5 1t5.5 1l12 6q1 0 3 1q4 2 8 2q5 0 9 -2q2 -1 3 -1l12 -5q2 -1 5.5 -2t8.5 -1h102q-3 -8 -8.5 -21
t-7.5 -16q-2 -5 -8.5 -9.5t-19.5 -4.5h-25q-7 0 -8 -2q-1 -1 -1 -4v-1l1 -1h24q-5 -10 -8.5 -19t-5.5 -11q-2 -6 -9 -9l-51 -21l-4 -2q-2 -1 -9 -1z" />
    <glyph glyph-name="ellipsis" unicode="&#x2026;" 
d="M222 269q-7 0 -9 1l-4 2l-50 21q-5 2 -6.5 4.5t-3.5 4.5q-2 3 -6 13t-7 17h25v2q0 3 -1 4q-2 2 -8 2h-26q-13 0 -19 4.5t-8 9.5q-2 3 -7.5 16t-9.5 21h103q5 0 8.5 1t5.5 1l12 6q1 0 3 1q4 2 8 2q5 0 9 -2q2 -1 3 -1l12 -5q2 -1 5.5 -2t8.5 -1h102q-3 -8 -8.5 -21
t-7.5 -16q-2 -5 -8.5 -9.5t-19.5 -4.5h-25q-7 0 -8 -2q-1 -1 -1 -4v-1l1 -1h24q-5 -10 -8.5 -19t-5.5 -11q-2 -6 -9 -9l-51 -21l-4 -2q-2 -1 -9 -1z" />
    <glyph glyph-name="perthousand" unicode="&#x2030;" 
d="M222 269q-7 0 -9 1l-4 2l-50 21q-5 2 -6.5 4.5t-3.5 4.5q-2 3 -6 13t-7 17h25v2q0 3 -1 4q-2 2 -8 2h-26q-13 0 -19 4.5t-8 9.5q-2 3 -7.5 16t-9.5 21h103q5 0 8.5 1t5.5 1l12 6q1 0 3 1q4 2 8 2q5 0 9 -2q2 -1 3 -1l12 -5q2 -1 5.5 -2t8.5 -1h102q-3 -8 -8.5 -21
t-7.5 -16q-2 -5 -8.5 -9.5t-19.5 -4.5h-25q-7 0 -8 -2q-1 -1 -1 -4v-1l1 -1h24q-5 -10 -8.5 -19t-5.5 -11q-2 -6 -9 -9l-51 -21l-4 -2q-2 -1 -9 -1z" />
    <glyph glyph-name="guilsinglleft" unicode="&#x2039;" 
d="M222 269q-7 0 -9 1l-4 2l-50 21q-5 2 -6.5 4.5t-3.5 4.5q-2 3 -6 13t-7 17h25v2q0 3 -1 4q-2 2 -8 2h-26q-13 0 -19 4.5t-8 9.5q-2 3 -7.5 16t-9.5 21h103q5 0 8.5 1t5.5 1l12 6q1 0 3 1q4 2 8 2q5 0 9 -2q2 -1 3 -1l12 -5q2 -1 5.5 -2t8.5 -1h102q-3 -8 -8.5 -21
t-7.5 -16q-2 -5 -8.5 -9.5t-19.5 -4.5h-25q-7 0 -8 -2q-1 -1 -1 -4v-1l1 -1h24q-5 -10 -8.5 -19t-5.5 -11q-2 -6 -9 -9l-51 -21l-4 -2q-2 -1 -9 -1z" />
    <glyph glyph-name="guilsinglright" unicode="&#x203a;" 
d="M222 269q-7 0 -9 1l-4 2l-50 21q-5 2 -6.5 4.5t-3.5 4.5q-2 3 -6 13t-7 17h25v2q0 3 -1 4q-2 2 -8 2h-26q-13 0 -19 4.5t-8 9.5q-2 3 -7.5 16t-9.5 21h103q5 0 8.5 1t5.5 1l12 6q1 0 3 1q4 2 8 2q5 0 9 -2q2 -1 3 -1l12 -5q2 -1 5.5 -2t8.5 -1h102q-3 -8 -8.5 -21
t-7.5 -16q-2 -5 -8.5 -9.5t-19.5 -4.5h-25q-7 0 -8 -2q-1 -1 -1 -4v-1l1 -1h24q-5 -10 -8.5 -19t-5.5 -11q-2 -6 -9 -9l-51 -21l-4 -2q-2 -1 -9 -1z" />
    <glyph glyph-name="fraction" unicode="&#x2044;" horiz-adv-x="463" 
d="M180 -3q-5 -17 -13.5 -20t-10.5 -3h-52l176 705q4 17 12.5 20t10.5 3h53z" />
    <glyph glyph-name="Euro" unicode="&#x20ac;" 
d="M222 269q-7 0 -9 1l-4 2l-50 21q-5 2 -6.5 4.5t-3.5 4.5q-2 3 -6 13t-7 17h25v2q0 3 -1 4q-2 2 -8 2h-26q-13 0 -19 4.5t-8 9.5q-2 3 -7.5 16t-9.5 21h103q5 0 8.5 1t5.5 1l12 6q1 0 3 1q4 2 8 2q5 0 9 -2q2 -1 3 -1l12 -5q2 -1 5.5 -2t8.5 -1h102q-3 -8 -8.5 -21
t-7.5 -16q-2 -5 -8.5 -9.5t-19.5 -4.5h-25q-7 0 -8 -2q-1 -1 -1 -4v-1l1 -1h24q-5 -10 -8.5 -19t-5.5 -11q-2 -6 -9 -9l-51 -21l-4 -2q-2 -1 -9 -1z" />
    <glyph glyph-name="trademark" unicode="&#x2122;" 
d="M222 269q-7 0 -9 1l-4 2l-50 21q-5 2 -6.5 4.5t-3.5 4.5q-2 3 -6 13t-7 17h25v2q0 3 -1 4q-2 2 -8 2h-26q-13 0 -19 4.5t-8 9.5q-2 3 -7.5 16t-9.5 21h103q5 0 8.5 1t5.5 1l12 6q1 0 3 1q4 2 8 2q5 0 9 -2q2 -1 3 -1l12 -5q2 -1 5.5 -2t8.5 -1h102q-3 -8 -8.5 -21
t-7.5 -16q-2 -5 -8.5 -9.5t-19.5 -4.5h-25q-7 0 -8 -2q-1 -1 -1 -4v-1l1 -1h24q-5 -10 -8.5 -19t-5.5 -11q-2 -6 -9 -9l-51 -21l-4 -2q-2 -1 -9 -1z" />
    <glyph glyph-name="Omega" unicode="&#x2126;" 
d="M222 269q-7 0 -9 1l-4 2l-50 21q-5 2 -6.5 4.5t-3.5 4.5q-2 3 -6 13t-7 17h25v2q0 3 -1 4q-2 2 -8 2h-26q-13 0 -19 4.5t-8 9.5q-2 3 -7.5 16t-9.5 21h103q5 0 8.5 1t5.5 1l12 6q1 0 3 1q4 2 8 2q5 0 9 -2q2 -1 3 -1l12 -5q2 -1 5.5 -2t8.5 -1h102q-3 -8 -8.5 -21
t-7.5 -16q-2 -5 -8.5 -9.5t-19.5 -4.5h-25q-7 0 -8 -2q-1 -1 -1 -4v-1l1 -1h24q-5 -10 -8.5 -19t-5.5 -11q-2 -6 -9 -9l-51 -21l-4 -2q-2 -1 -9 -1z" />
    <glyph glyph-name="partialdiff" unicode="&#x2202;" 
d="M222 269q-7 0 -9 1l-4 2l-50 21q-5 2 -6.5 4.5t-3.5 4.5q-2 3 -6 13t-7 17h25v2q0 3 -1 4q-2 2 -8 2h-26q-13 0 -19 4.5t-8 9.5q-2 3 -7.5 16t-9.5 21h103q5 0 8.5 1t5.5 1l12 6q1 0 3 1q4 2 8 2q5 0 9 -2q2 -1 3 -1l12 -5q2 -1 5.5 -2t8.5 -1h102q-3 -8 -8.5 -21
t-7.5 -16q-2 -5 -8.5 -9.5t-19.5 -4.5h-25q-7 0 -8 -2q-1 -1 -1 -4v-1l1 -1h24q-5 -10 -8.5 -19t-5.5 -11q-2 -6 -9 -9l-51 -21l-4 -2q-2 -1 -9 -1z" />
    <glyph glyph-name="Delta" unicode="&#x2206;" 
d="M222 269q-7 0 -9 1l-4 2l-50 21q-5 2 -6.5 4.5t-3.5 4.5q-2 3 -6 13t-7 17h25v2q0 3 -1 4q-2 2 -8 2h-26q-13 0 -19 4.5t-8 9.5q-2 3 -7.5 16t-9.5 21h103q5 0 8.5 1t5.5 1l12 6q1 0 3 1q4 2 8 2q5 0 9 -2q2 -1 3 -1l12 -5q2 -1 5.5 -2t8.5 -1h102q-3 -8 -8.5 -21
t-7.5 -16q-2 -5 -8.5 -9.5t-19.5 -4.5h-25q-7 0 -8 -2q-1 -1 -1 -4v-1l1 -1h24q-5 -10 -8.5 -19t-5.5 -11q-2 -6 -9 -9l-51 -21l-4 -2q-2 -1 -9 -1z" />
    <glyph glyph-name="product" unicode="&#x220f;" 
d="M222 269q-7 0 -9 1l-4 2l-50 21q-5 2 -6.5 4.5t-3.5 4.5q-2 3 -6 13t-7 17h25v2q0 3 -1 4q-2 2 -8 2h-26q-13 0 -19 4.5t-8 9.5q-2 3 -7.5 16t-9.5 21h103q5 0 8.5 1t5.5 1l12 6q1 0 3 1q4 2 8 2q5 0 9 -2q2 -1 3 -1l12 -5q2 -1 5.5 -2t8.5 -1h102q-3 -8 -8.5 -21
t-7.5 -16q-2 -5 -8.5 -9.5t-19.5 -4.5h-25q-7 0 -8 -2q-1 -1 -1 -4v-1l1 -1h24q-5 -10 -8.5 -19t-5.5 -11q-2 -6 -9 -9l-51 -21l-4 -2q-2 -1 -9 -1z" />
    <glyph glyph-name="summation" unicode="&#x2211;" 
d="M222 269q-7 0 -9 1l-4 2l-50 21q-5 2 -6.5 4.5t-3.5 4.5q-2 3 -6 13t-7 17h25v2q0 3 -1 4q-2 2 -8 2h-26q-13 0 -19 4.5t-8 9.5q-2 3 -7.5 16t-9.5 21h103q5 0 8.5 1t5.5 1l12 6q1 0 3 1q4 2 8 2q5 0 9 -2q2 -1 3 -1l12 -5q2 -1 5.5 -2t8.5 -1h102q-3 -8 -8.5 -21
t-7.5 -16q-2 -5 -8.5 -9.5t-19.5 -4.5h-25q-7 0 -8 -2q-1 -1 -1 -4v-1l1 -1h24q-5 -10 -8.5 -19t-5.5 -11q-2 -6 -9 -9l-51 -21l-4 -2q-2 -1 -9 -1z" />
    <glyph glyph-name="minus" unicode="&#x2212;" horiz-adv-x="455" 
d="M327 374v-49q0 -9 -6 -15t-15 -6h-189v48q0 9 6.5 15.5t14.5 6.5h189z" />
    <glyph glyph-name="radical" unicode="&#x221a;" 
d="M222 269q-7 0 -9 1l-4 2l-50 21q-5 2 -6.5 4.5t-3.5 4.5q-2 3 -6 13t-7 17h25v2q0 3 -1 4q-2 2 -8 2h-26q-13 0 -19 4.5t-8 9.5q-2 3 -7.5 16t-9.5 21h103q5 0 8.5 1t5.5 1l12 6q1 0 3 1q4 2 8 2q5 0 9 -2q2 -1 3 -1l12 -5q2 -1 5.5 -2t8.5 -1h102q-3 -8 -8.5 -21
t-7.5 -16q-2 -5 -8.5 -9.5t-19.5 -4.5h-25q-7 0 -8 -2q-1 -1 -1 -4v-1l1 -1h24q-5 -10 -8.5 -19t-5.5 -11q-2 -6 -9 -9l-51 -21l-4 -2q-2 -1 -9 -1z" />
    <glyph glyph-name="infinity" unicode="&#x221e;" 
d="M222 269q-7 0 -9 1l-4 2l-50 21q-5 2 -6.5 4.5t-3.5 4.5q-2 3 -6 13t-7 17h25v2q0 3 -1 4q-2 2 -8 2h-26q-13 0 -19 4.5t-8 9.5q-2 3 -7.5 16t-9.5 21h103q5 0 8.5 1t5.5 1l12 6q1 0 3 1q4 2 8 2q5 0 9 -2q2 -1 3 -1l12 -5q2 -1 5.5 -2t8.5 -1h102q-3 -8 -8.5 -21
t-7.5 -16q-2 -5 -8.5 -9.5t-19.5 -4.5h-25q-7 0 -8 -2q-1 -1 -1 -4v-1l1 -1h24q-5 -10 -8.5 -19t-5.5 -11q-2 -6 -9 -9l-51 -21l-4 -2q-2 -1 -9 -1z" />
    <glyph glyph-name="integral" unicode="&#x222b;" 
d="M222 269q-7 0 -9 1l-4 2l-50 21q-5 2 -6.5 4.5t-3.5 4.5q-2 3 -6 13t-7 17h25v2q0 3 -1 4q-2 2 -8 2h-26q-13 0 -19 4.5t-8 9.5q-2 3 -7.5 16t-9.5 21h103q5 0 8.5 1t5.5 1l12 6q1 0 3 1q4 2 8 2q5 0 9 -2q2 -1 3 -1l12 -5q2 -1 5.5 -2t8.5 -1h102q-3 -8 -8.5 -21
t-7.5 -16q-2 -5 -8.5 -9.5t-19.5 -4.5h-25q-7 0 -8 -2q-1 -1 -1 -4v-1l1 -1h24q-5 -10 -8.5 -19t-5.5 -11q-2 -6 -9 -9l-51 -21l-4 -2q-2 -1 -9 -1z" />
    <glyph glyph-name="approxequal" unicode="&#x2248;" 
d="M222 269q-7 0 -9 1l-4 2l-50 21q-5 2 -6.5 4.5t-3.5 4.5q-2 3 -6 13t-7 17h25v2q0 3 -1 4q-2 2 -8 2h-26q-13 0 -19 4.5t-8 9.5q-2 3 -7.5 16t-9.5 21h103q5 0 8.5 1t5.5 1l12 6q1 0 3 1q4 2 8 2q5 0 9 -2q2 -1 3 -1l12 -5q2 -1 5.5 -2t8.5 -1h102q-3 -8 -8.5 -21
t-7.5 -16q-2 -5 -8.5 -9.5t-19.5 -4.5h-25q-7 0 -8 -2q-1 -1 -1 -4v-1l1 -1h24q-5 -10 -8.5 -19t-5.5 -11q-2 -6 -9 -9l-51 -21l-4 -2q-2 -1 -9 -1z" />
    <glyph glyph-name="notequal" unicode="&#x2260;" 
d="M222 269q-7 0 -9 1l-4 2l-50 21q-5 2 -6.5 4.5t-3.5 4.5q-2 3 -6 13t-7 17h25v2q0 3 -1 4q-2 2 -8 2h-26q-13 0 -19 4.5t-8 9.5q-2 3 -7.5 16t-9.5 21h103q5 0 8.5 1t5.5 1l12 6q1 0 3 1q4 2 8 2q5 0 9 -2q2 -1 3 -1l12 -5q2 -1 5.5 -2t8.5 -1h102q-3 -8 -8.5 -21
t-7.5 -16q-2 -5 -8.5 -9.5t-19.5 -4.5h-25q-7 0 -8 -2q-1 -1 -1 -4v-1l1 -1h24q-5 -10 -8.5 -19t-5.5 -11q-2 -6 -9 -9l-51 -21l-4 -2q-2 -1 -9 -1z" />
    <glyph glyph-name="lessequal" unicode="&#x2264;" 
d="M222 269q-7 0 -9 1l-4 2l-50 21q-5 2 -6.5 4.5t-3.5 4.5q-2 3 -6 13t-7 17h25v2q0 3 -1 4q-2 2 -8 2h-26q-13 0 -19 4.5t-8 9.5q-2 3 -7.5 16t-9.5 21h103q5 0 8.5 1t5.5 1l12 6q1 0 3 1q4 2 8 2q5 0 9 -2q2 -1 3 -1l12 -5q2 -1 5.5 -2t8.5 -1h102q-3 -8 -8.5 -21
t-7.5 -16q-2 -5 -8.5 -9.5t-19.5 -4.5h-25q-7 0 -8 -2q-1 -1 -1 -4v-1l1 -1h24q-5 -10 -8.5 -19t-5.5 -11q-2 -6 -9 -9l-51 -21l-4 -2q-2 -1 -9 -1z" />
    <glyph glyph-name="greaterequal" unicode="&#x2265;" 
d="M222 269q-7 0 -9 1l-4 2l-50 21q-5 2 -6.5 4.5t-3.5 4.5q-2 3 -6 13t-7 17h25v2q0 3 -1 4q-2 2 -8 2h-26q-13 0 -19 4.5t-8 9.5q-2 3 -7.5 16t-9.5 21h103q5 0 8.5 1t5.5 1l12 6q1 0 3 1q4 2 8 2q5 0 9 -2q2 -1 3 -1l12 -5q2 -1 5.5 -2t8.5 -1h102q-3 -8 -8.5 -21
t-7.5 -16q-2 -5 -8.5 -9.5t-19.5 -4.5h-25q-7 0 -8 -2q-1 -1 -1 -4v-1l1 -1h24q-5 -10 -8.5 -19t-5.5 -11q-2 -6 -9 -9l-51 -21l-4 -2q-2 -1 -9 -1z" />
    <glyph glyph-name="lozenge" unicode="&#x25ca;" 
d="M222 269q-7 0 -9 1l-4 2l-50 21q-5 2 -6.5 4.5t-3.5 4.5q-2 3 -6 13t-7 17h25v2q0 3 -1 4q-2 2 -8 2h-26q-13 0 -19 4.5t-8 9.5q-2 3 -7.5 16t-9.5 21h103q5 0 8.5 1t5.5 1l12 6q1 0 3 1q4 2 8 2q5 0 9 -2q2 -1 3 -1l12 -5q2 -1 5.5 -2t8.5 -1h102q-3 -8 -8.5 -21
t-7.5 -16q-2 -5 -8.5 -9.5t-19.5 -4.5h-25q-7 0 -8 -2q-1 -1 -1 -4v-1l1 -1h24q-5 -10 -8.5 -19t-5.5 -11q-2 -6 -9 -9l-51 -21l-4 -2q-2 -1 -9 -1z" />
    <glyph glyph-name="apple" unicode="&#xf8ff;" 
d="M222 269q-7 0 -9 1l-4 2l-50 21q-5 2 -6.5 4.5t-3.5 4.5q-2 3 -6 13t-7 17h25v2q0 3 -1 4q-2 2 -8 2h-26q-13 0 -19 4.5t-8 9.5q-2 3 -7.5 16t-9.5 21h103q5 0 8.5 1t5.5 1l12 6q1 0 3 1q4 2 8 2q5 0 9 -2q2 -1 3 -1l12 -5q2 -1 5.5 -2t8.5 -1h102q-3 -8 -8.5 -21
t-7.5 -16q-2 -5 -8.5 -9.5t-19.5 -4.5h-25q-7 0 -8 -2q-1 -1 -1 -4v-1l1 -1h24q-5 -10 -8.5 -19t-5.5 -11q-2 -6 -9 -9l-51 -21l-4 -2q-2 -1 -9 -1z" />
    <glyph glyph-name="fi" unicode="&#xfb01;" 
d="M222 269q-7 0 -9 1l-4 2l-50 21q-5 2 -6.5 4.5t-3.5 4.5q-2 3 -6 13t-7 17h25v2q0 3 -1 4q-2 2 -8 2h-26q-13 0 -19 4.5t-8 9.5q-2 3 -7.5 16t-9.5 21h103q5 0 8.5 1t5.5 1l12 6q1 0 3 1q4 2 8 2q5 0 9 -2q2 -1 3 -1l12 -5q2 -1 5.5 -2t8.5 -1h102q-3 -8 -8.5 -21
t-7.5 -16q-2 -5 -8.5 -9.5t-19.5 -4.5h-25q-7 0 -8 -2q-1 -1 -1 -4v-1l1 -1h24q-5 -10 -8.5 -19t-5.5 -11q-2 -6 -9 -9l-51 -21l-4 -2q-2 -1 -9 -1z" />
    <glyph glyph-name="fl" unicode="&#xfb02;" 
d="M222 269q-7 0 -9 1l-4 2l-50 21q-5 2 -6.5 4.5t-3.5 4.5q-2 3 -6 13t-7 17h25v2q0 3 -1 4q-2 2 -8 2h-26q-13 0 -19 4.5t-8 9.5q-2 3 -7.5 16t-9.5 21h103q5 0 8.5 1t5.5 1l12 6q1 0 3 1q4 2 8 2q5 0 9 -2q2 -1 3 -1l12 -5q2 -1 5.5 -2t8.5 -1h102q-3 -8 -8.5 -21
t-7.5 -16q-2 -5 -8.5 -9.5t-19.5 -4.5h-25q-7 0 -8 -2q-1 -1 -1 -4v-1l1 -1h24q-5 -10 -8.5 -19t-5.5 -11q-2 -6 -9 -9l-51 -21l-4 -2q-2 -1 -9 -1z" />
    </font>
</defs>
</svg>
